<svg id="Camada_1" data-name="Camada 1" xmlns="http://www.w3.org/2000/svg" xmlns:xlink="http://www.w3.org/1999/xlink" viewBox="0 0 1093.68 1112.37"><defs><style>.cls-1{fill:none;}.cls-2{fill:#f2922a;}.cls-3{clip-path:url(#clip-path);}.cls-4{fill:#e09855;}</style><clipPath id="clip-path" transform="translate(230.72 138.15)"><path class="cls-1" d="M346.33,511.17H228.6c-20.76,0-37.26-14.72-39.87-35.46a142,142,0,0,1,1.17-40.91c2.8-17.08,13.14-29.26,27.62-37.55,12.8-7.32,26.4-13.25,39.64-19.81,15.08-7.48,30.23-14.83,45.19-22.56,7.12-3.68,11.78-14.31,10.21-22.17a6.85,6.85,0,0,0-2.64-3.58c-19.46-14.67-30.84-34.47-37.2-57.61a15.81,15.81,0,0,0-4.51-7.21c-9.71-8.64-15.66-28.8-7.93-38.91,7.57-9.89,3.88-19,3.63-28.6-.33-12.53.29-24.83,5.17-36.55,3-7.14,7.66-12.58,15.34-15a5.45,5.45,0,0,0,3.21-2.36c5.4-12.83,16.09-18.64,28.8-21.14,25.83-5.09,51.17-4.11,75.93,6.16,19.9,8.26,30.84,22.8,34.22,43.85a162.58,162.58,0,0,1,1.31,42.77c-.12,1.09.19,2.73.93,3.31,10.1,7.95,9.23,18.65,7.15,29.36-1.57,8.12-5.66,14.91-13,19.51a8,8,0,0,0-2.84,4.51c-6.24,23.56-18,43.52-37.76,58.29a5.09,5.09,0,0,0-2.1,3.35c.19,8.51,1.43,18.1,11.14,22.71C414,366.3,436.69,376.91,459,388.23a176.94,176.94,0,0,1,27,17.1c11.39,8.68,16.72,21.3,17.83,35.22A218,218,0,0,1,504,475.4c-1.67,20.67-18.71,35.7-39.45,35.74Q405.43,511.25,346.33,511.17Z"/></clipPath></defs><path class="cls-2" d="M592.25,22h-484a53.11,53.11,0,0,0-52.95,53v484a53.1,53.1,0,0,0,53,52.94h484a53.09,53.09,0,0,0,52.94-52.94V74.9A53.1,53.1,0,0,0,592.25,22Zm2.67,508.73A31,31,0,0,1,564,561.59h-7.39l-19.18,33.75-19.79-33.75H136.46a31,31,0,0,1-30.9-30.91V103.13a31,31,0,0,1,30.9-30.9H564a31,31,0,0,1,30.91,30.9Z" transform="translate(230.72 138.15)"/><g class="cls-3"><path class="cls-4" d="M-230,709.4c7.93-6.6,15.83-13.23,23.8-19.78,2.68-2.22,5.81-4,8.23-6.42,8.32-8.42,16.91-16.66,24.47-25.73a402.18,402.18,0,0,0,27-35.66c7-10.55,12.35-22.15,18.2-33.42,4.76-9.15,9.53-18.33,13.64-27.79,6.23-14.32,11.76-28.94,17.83-43.33q5.7-13.53,12.1-26.75c8.14-16.86,16.34-33.7,24.86-50.38,5.2-10.19,10.67-20.27,16.68-30,5-8.16,10.9-15.83,16.61-23.55,7.3-9.88,15.12-19.38,22.14-29.45,6.13-8.79,11-18.5,17.25-27.15,8.81-12.06,18.48-23.5,27.73-35.23,2.08-2.63,3.8-5.56,6-8.07,8.37-9.54,16.9-18.94,25.32-28.44,7.3-8.23,14.42-16.63,21.84-24.76,8.46-9.27,17.19-18.29,25.76-27.47,10.58-11.32,20.61-23.2,31.83-33.84,7.22-6.85,16.14-11.9,24.32-17.74,3.29-2.35,6.54-4.76,9.95-6.93,12.15-7.73,24-16.12,36.66-22.86a363.49,363.49,0,0,1,50.35-21.59C306.37,91.22,340.9,88.81,376,92.57c10.23,1.09,20.17,4.63,30.34,6.48,18.31,3.33,36.8,5.72,55,9.5a204.26,204.26,0,0,1,32.45,9.94c19.38,7.56,38.7,15.39,57.53,24.19,16.69,7.79,33,16.48,48.89,25.87a273.88,273.88,0,0,1,33.38,23.68A179.28,179.28,0,0,1,656,214.72c9.34,10.89,18.69,21.92,26.54,33.88a343.84,343.84,0,0,1,23.29,41.62A563.69,563.69,0,0,1,728.19,344c6.85,19.49,11.83,39.62,17.87,59.4,4.37,14.32,9.21,28.48,13.72,42.76C765.29,463.59,770.94,481,776,498.6c3.86,13.28,7,26.78,10.39,40.19a242.68,242.68,0,0,0,23.48,59c3.27,5.84,7.31,11.24,11,16.87,5.92,9.12,12.13,18.07,17.65,27.43,7.86,13.35,15.2,27,22.78,40.52A25.15,25.15,0,0,0,863,685v31.1c-1.66-2.68-3.43-5.31-5-8.07-5.57-10-11-20.13-16.6-30.09Q834,664.87,826.13,652c-10.62-17.4-22.23-34.27-31.83-52.21-8.2-15.3-15.78-31.1-19.69-48.36-2.81-12.4-6.62-24.58-10.23-36.78-5.8-19.56-11.79-39.06-17.75-58.57-4.52-14.85-9.16-29.66-13.68-44.51-5.14-16.86-10.46-33.66-15.25-50.62a372.88,372.88,0,0,0-23.1-60.17,386.44,386.44,0,0,0-25.43-44.34,256.91,256.91,0,0,0-27.12-35,229.19,229.19,0,0,0-33.57-29.52c-13.22-9.44-27.53-17.54-42-25-18.64-9.57-37.67-18.49-57-26.57a362,362,0,0,0-46.33-15.95c-13.87-3.69-28.38-4.92-42.55-7.59-11.82-2.23-23.48-5.3-35.32-7.41-16.43-2.92-33-4.72-49.72-3.14-12.64,1.2-25.47,2.21-37.74,5.23-23.8,5.87-46.95,13.91-68.09,26.75-13.71,8.32-27.49,16.55-40.87,25.38-11.05,7.29-21.62,15.31-32.24,23.22-2.41,1.8-4.15,4.49-6.18,6.8-10.31,11.72-20.58,23.49-31,35.16-2.69,3-5.91,5.55-8.62,8.54-7.39,8.17-14.64,16.46-21.93,24.71C74.42,278.48,59.65,294.7,45.5,311.44c-6.81,8.07-12.48,17.11-18.63,25.73-4.46,6.26-9,12.5-13.27,18.86-6,8.89-11.73,18-17.9,26.8-3,4.32-7,8-10.22,12.18A233.61,233.61,0,0,0-38,432c-8.25,16.62-17.92,32.55-26.09,49.21-6.7,13.64-12,27.94-18.1,41.9-4,9.36-8.23,18.66-12.42,28-7,15.42-13.38,31.11-21.11,46.13s-15.69,30.26-26.16,43.85c-6.71,8.72-12.4,18.29-19.62,26.54a307.08,307.08,0,0,1-26.11,25.92c-9.4,8.47-19.5,16.17-29.2,24.32-4.49,3.77-8.76,7.8-13.13,11.71Z" transform="translate(230.72 138.15)"/><path class="cls-4" d="M863,779.18c-3.2-1.59-6.6-2.88-9.57-4.81-15.7-10.22-28.49-23.41-39-38.83-5.2-7.58-10.8-14.9-15.78-22.62-7.18-11.15-14.2-22.42-20.84-33.91-6.76-11.7-12.4-24.08-19.56-35.51-8-12.78-17.64-24.53-25.67-37.28a380,380,0,0,1-20.78-37.32Q698,540.39,685.87,511.1c-6.46-15.74-11.74-32-17.42-48-5.17-14.62-10-29.37-15.31-43.92q-8.29-22.58-17.42-44.85c-2.64-6.44-6.19-12.52-9.44-18.7-6.48-12.37-12.87-24.78-19.62-37-6.47-11.71-12.91-23.48-20.15-34.71-8.4-13-17.93-25.31-26.46-38.26-6.87-10.43-15.85-18.88-25.3-26.57a206.83,206.83,0,0,0-29.91-19.75,323.47,323.47,0,0,0-65.32-27.16c-40.23-12-81.08-13.9-122.36-3.87-16.28,4-32.07,8.86-47.2,15.9-10.22,4.75-20.53,9.49-30.16,15.29-13.23,8-26.13,16.54-38.64,25.59a201.11,201.11,0,0,0-22.7,19.69c-10.13,9.95-20.14,20.09-29.38,30.86-7.66,8.94-14.39,18.72-21.06,28.46a299.91,299.91,0,0,0-26.79,48.71c-8.39,19-16.83,38.07-24.84,57.28C70.48,424.22,65.33,438.71,59.66,453,51.31,474,43,495.08,34.32,516c-7.92,19-9.51,39.06-9.6,59.28a400.16,400.16,0,0,0,10.72,94.52c2.62,11,5.06,22.09,7.93,33.05,3.43,13.1,10.28,24.42,19.22,34.5,4.24,4.79,3.76,10.23-1.59,12.28-2,.77-5.4.63-7-.61a47.92,47.92,0,0,1-9.73-10.23,122.32,122.32,0,0,1-19.17-46.55c-4.07-21.16-9.45-42.13-12.27-63.45-4-30.47-5.34-61.31-.26-91.74,2.17-13,8.27-25.44,12.91-38,3-8.24,6.75-16.24,10-24.41q11.28-28.21,22.4-56.5c7.24-18.3,13.87-36.87,21.83-54.84,7.06-16,15.22-31.47,23.6-46.79a313.47,313.47,0,0,1,21.17-34.16c11.6-15.91,24.34-31,38.9-44.38,7.19-6.62,14.12-13.58,21.73-19.67,8.14-6.52,16.93-12.24,25.48-18.23,5.15-3.61,10.18-7.47,15.65-10.53,15-8.38,30.08-16.44,46.14-22.85,34.85-13.9,70.85-21,108.25-19.39,15,.64,30,3.79,44.9,6,14.53,2.12,28.08,7.42,41.47,13.19,15.26,6.58,30.59,13,45.7,19.92a85.07,85.07,0,0,1,15.3,9.4q14.24,10.62,27.9,22a58.1,58.1,0,0,1,8.87,10q12.7,17.08,25.08,34.45c4.78,6.71,9.45,13.53,13.8,20.53,4.86,7.83,9.55,15.78,13.88,23.91,8.36,15.64,16.85,31.24,24.47,47.25,8.27,17.39,16,35.07,23.23,52.91,5,12.28,8.7,25.08,13.13,37.59,6.44,18.18,12.86,36.37,19.59,54.44,4.67,12.53,9.55,25,14.89,37.27,5,11.37,10.38,22.57,16.11,33.58,4.43,8.52,9.38,16.81,14.61,24.87,9.86,15.22,20.34,30,30.06,45.34,5.37,8.47,9.47,17.74,14.6,26.37,9,15.12,17.91,30.3,27.6,45a307.83,307.83,0,0,0,25,33.49c6.27,7.14,14.66,12.4,22.11,18.5Z" transform="translate(230.72 138.15)"/><path class="cls-4" d="M-230,561.43c2.11-2.76,4.42-5.41,6.3-8.32,5.37-8.32,11-16.49,15.75-25.18,11.06-20.38,21.9-40.88,32.29-61.61,5.37-10.73,9.47-22.1,14.34-33.09,6-13.64,12.07-27.29,18.55-40.73,2.59-5.37,6.27-10.24,9.63-15.22,7.4-11,14.55-22.16,22.47-32.76S-94.33,323.93-85.76,314c9.48-11,19.14-21.85,29.15-32.35,9.81-10.29,20.17-20,30.26-30,10.57-10.5,21.08-21.06,31.68-31.53C15.54,210,25.56,199.64,36.15,190c13-11.85,26.19-23.42,39.76-34.58,8-6.62,17-12.23,25.49-18.27,12.33-8.71,24.38-17.87,37.11-26a421.81,421.81,0,0,1,37.13-21c18.72-9.4,37.51-18.79,56.85-26.75a363.1,363.1,0,0,1,50.1-16.63A254.8,254.8,0,0,1,379,41.57c10.36,1.4,20.93,2.35,30.93,5.19,10.56,3,20.69,7.7,30.73,12.25,9.38,4.25,18.5,9.13,27.56,14,10.06,5.45,19.67,11.8,29.95,16.77,13.79,6.68,28,12.51,42.11,18.52,9.52,4.06,19.07,8.09,28.78,11.64a192.91,192.91,0,0,1,47.69,25.93c7.75,5.66,14.78,12.3,22.14,18.48,9,7.53,18.34,14.64,26.83,22.69,8.07,7.65,15.32,16.19,22.76,24.48,12.27,13.67,22.51,28.82,31.72,44.66,6.18,10.62,12,21.47,18.38,31.93,4.94,8.06,10.76,15.57,15.86,23.54,3.9,6.09,7.52,12.38,10.86,18.8,6,11.52,11.69,23.18,17.45,34.82,8.12,16.4,16.06,32.89,24.31,49.23s16.59,32.94,25.48,49.08c6.52,11.84,14.3,23,21,34.77,3.28,5.79,5.26,12.31,7.85,18.48.48,1.15,1.1,2.25,1.66,3.37V564c-2.72-6.86-5.48-13.7-8.13-20.58-3.87-10-7.67-20.09-11.47-30.14-4.5-11.86-11.8-22.09-18.41-32.78-7.69-12.45-14.38-25.54-21.08-38.56-8.71-16.91-17.09-34-25.47-51.06-6.84-13.92-13.15-28.11-20.28-41.88-7.38-14.25-14.71-28.49-25.21-41-5.48-6.53-8.63-15-13.13-22.37-9.73-16-19.2-32.13-29.66-47.61-6-8.95-13.51-17-20.86-25a306.71,306.71,0,0,0-23.11-22.93c-13.43-11.78-26.9-23.59-41.23-34.21a140.86,140.86,0,0,0-36.72-19.94c-12.37-4.38-24.6-9.17-36.76-14.12-8.54-3.48-17-7.22-25.21-11.4-9.81-5-19.23-10.74-29-15.87-13.31-7-26.68-14-40.19-20.62-8.13-4-16.29-8.37-24.94-10.85a218.2,218.2,0,0,0-33.31-6.43c-23.13-2.86-46.32-3.53-69.51.25-22.47,3.66-44.25,9.53-65.14,18.64-11.25,4.91-22.66,9.46-33.82,14.58s-22.22,10.47-33.06,16.22c-9,4.76-17.62,10.16-26.31,15.45-9.64,5.87-19.43,11.55-28.66,18-11.53,8.08-22.6,16.82-33.76,25.42C79.32,172.33,70,179.37,61.15,187,53.76,193.32,47,200.43,40,207.19c-9,8.7-18.25,17.25-27.16,26.1-9.11,9-17.83,18.46-26.92,27.51-11.77,11.73-23.95,23.05-35.54,35-7.67,7.89-14.69,16.42-21.85,24.8-7.61,8.9-15.46,17.65-22.45,27-9.1,12.19-17.9,24.64-26,37.5a344.29,344.29,0,0,0-20.68,36.8c-7.31,15.52-13,31.78-19.79,47.58-3.79,8.86-7.92,17.63-12.49,26.11-7.82,14.51-15.71,29-24.31,43.07-9.55,15.59-19.91,30.69-30,46a21.55,21.55,0,0,1-2.78,2.88Z" transform="translate(230.72 138.15)"/><path class="cls-4" d="M-230,764c7.29-3.12,14.56-6.28,21.87-9.35q7.92-3.33,15.93-6.44c11.84-4.63,23.63-9.41,35.57-13.75,19.14-7,33-20.2,45.3-35.9,8.06-10.32,17.66-19.46,25.54-29.9a169.9,169.9,0,0,0,16.49-27.09C-58.1,619-51.7,595-51.83,569.65c-.1-19.76,6.58-37.52,14.9-55,3.3-6.9,6.05-14.1,8.71-21.28,3.54-9.56,6.64-19.29,10.15-28.87C-13.6,452.32-9,440.14-4.29,428c5.82-14.8,11.14-29.88,18.07-44.17a553.32,553.32,0,0,1,26.85-48.81,320.28,320.28,0,0,1,25.43-34.73c6.69-8.14,14.73-15.17,22.26-22.59q13.56-13.38,27.27-26.58c6.81-6.58,13.9-12.89,20.51-19.68,8.65-8.89,16.51-18.6,25.51-27.1,12.25-11.57,24.74-23,38.12-33.2,8.78-6.69,19.17-11.35,29.08-16.44,9.7-5,19.47-10,29.65-13.82,16.87-6.31,33.78-13.17,51.28-17a222.18,222.18,0,0,1,59.69-4.46c20.13,1.12,40.31,2.37,59.92,7.41a360.79,360.79,0,0,1,36,11.16c14.36,5.37,28.47,11.47,42.4,17.88,6.68,3.07,12.7,7.6,19,11.47,3.32,2,6.87,3.78,9.92,6.16,9.35,7.27,19,14.29,27.62,22.33a367.6,367.6,0,0,1,28,29.19c9.36,10.88,18,22.4,26.57,33.92a272.49,272.49,0,0,1,16.14,24c7.51,12.73,14.78,25.63,21.47,38.8,9,17.69,18,35.42,25.73,53.68s14.21,37.32,20.79,56.18c8.88,25.48,17.32,51.12,26,76.68,4.89,14.43,10,28.78,14.64,43.3.76,2.39.36,6.16-1.1,8-2.22,2.83-6.08,3.48-9.56,1.45a6.72,6.72,0,0,1-2.81-3.29q-15.72-46-31.28-92.16c-5.87-17.34-11.61-34.74-17.73-52-3.18-9-7-17.71-10.66-26.46-6.15-14.51-12.22-29.07-18.84-43.37-3.64-7.85-8.25-15.25-12.56-22.77-5.4-9.43-10.63-19-16.51-28.11-9-13.95-18.14-27.82-27.86-41.27A264.75,264.75,0,0,0,572,223.94a242.77,242.77,0,0,0-27.26-24.62c-12.37-9.53-25-19-38.54-26.66-27.94-15.7-57.88-27.06-89.39-32.88-29.38-5.42-59.18-7.65-89.08-3.59-18,2.43-35.42,6.59-52,14.13-15.39,7-31.13,13.23-46.4,20.47a146.76,146.76,0,0,0-36.75,25.33c-11.13,10.33-21.95,21-32.71,31.72s-21.3,22.1-32.27,32.82c-12.06,11.8-24.84,22.88-36.69,34.88a233.74,233.74,0,0,0-23.79,27.51c-9.41,13.11-18.46,26.64-26,40.86C30.89,383,21.66,402.69,13.25,422.63,6.43,438.8,1.75,455.84-4.49,472.26c-7.44,19.6-15.11,39.13-23.45,58.35-6.45,14.84-8.89,30.28-9.34,46.16-.54,19-5,37-11.37,54.83a131.67,131.67,0,0,1-16,31.73c-8.31,11.81-17.11,23.3-26.12,34.6-7.28,9.14-14.57,18.43-23,26.45C-121,731.22-129.12,737.73-138,742c-17.22,8.2-35.28,14.62-52.94,21.91-7.74,3.2-15.3,6.83-23,10.07-5.26,2.2-10.66,4.06-16,6.08Z" transform="translate(230.72 138.15)"/><path class="cls-4" d="M-230,416c3.73-6.69,7.41-13.4,11.19-20.06,8.56-15.07,17.25-30.07,25.73-45.18,6.63-11.79,12.9-23.78,19.58-35.54,3.92-6.92,8.47-13.48,12.5-20.34,6.79-11.54,13.33-23.24,20.09-34.8,3.1-5.31,6.49-10.45,9.74-15.67,7.66-12.3,14.79-25,23.1-36.82,11.94-17,24.22-33.88,37.36-50A300,300,0,0,1-39.5,125c10.32-9.32,22-17.11,33.14-25.54,7.55-5.72,14.91-11.75,22.79-17C28.73,74.29,41.18,66.28,54,58.91,70.54,49.37,87.23,40,104.38,31.56c15.12-7.42,31-13.42,46.49-20,5.66-2.39,11.36-4.68,17.08-6.92,23.49-9.24,47.55-16.89,72.43-20.95,37.52-6.13,75.31-9.85,113.39-5.74,24.59,2.65,48.55,8.1,71.34,18,16.4,7.12,33.08,13.68,49.11,21.56,21.06,10.34,41.84,21.34,62.32,32.79C556.12,61.26,573.7,75.07,590,90.52c8.91,8.43,18.34,16.32,27.54,24.45,7.91,7,15.75,14.09,23.76,21s16.57,13.64,24.66,20.69c10.23,8.91,20,18.32,30.4,27.06a281.86,281.86,0,0,1,44,46.62c10.73,14.28,21.4,28.68,29.1,44.84,8.7,18.24,16.65,36.84,24.59,55.43a589.06,589.06,0,0,0,27.85,56.33c4.43,7.9,7.25,16.7,11.66,24.61,5.63,10.09,12.08,19.73,18.26,29.51,3.62,5.72,7.42,11.33,11.14,17v35.31c-2.41-4.86-4.78-9.73-7.22-14.58-2.82-5.58-5.31-11.37-8.61-16.66-5.92-9.48-12.51-18.55-18.48-28a169.78,169.78,0,0,1-9-16.52c-4.11-8.42-7.88-17-11.89-25.46-1.37-2.89-3-5.68-4.61-8.42-10.11-16.83-17.48-35-25.15-52.94-5.81-13.6-10.42-27.83-17.35-40.82-7.86-14.74-17.43-28.61-26.8-42.5-6.07-9-13-17.38-19.74-25.93-1.7-2.17-4-3.87-5.9-5.89-10.82-11.5-22.78-21.73-34.88-31.84-9.52-8-18.44-16.6-27.79-24.76-16.71-14.6-33.62-29-50.3-43.63-7.75-6.81-14.88-14.34-22.77-21s-16.28-12.64-24.6-18.7a162,162,0,0,0-16.39-10.92Q511.43,53.57,491,43C474,34.37,457.19,25.52,439.87,17.71,396.74-1.75,351.62-12,304.09-8.16,281-6.3,257.81-3.73,234.93.09,220.54,2.49,206.48,7.33,192.56,12,178.15,16.79,164,22.49,149.9,28.19s-28.35,11.74-42.32,18.08c-7.11,3.22-13.77,7.43-20.64,11.19C78.62,62,70,66.14,62,71.2q-23.85,15-47.14,31c-8.27,5.65-15.81,12.36-24,18.07a235.44,235.44,0,0,0-39.76,34.5c-7.61,8.31-14.43,17.38-21.26,26.37-9,11.88-18,23.83-26.46,36.11-6.09,8.82-11.29,18.25-16.95,27.36-3.17,5.11-6.64,10-9.69,15.19-9,15.26-17.89,30.61-26.86,45.89-7.42,12.63-15.07,25.12-22.29,37.85-6.67,11.76-12.87,23.79-19.37,35.65-2.56,4.66-5.46,9.12-8.07,13.75q-9.89,17.52-19.64,35.12c-3.53,6.34-7,12.7-10.48,19.06Z" transform="translate(230.72 138.15)"/><path class="cls-4" d="M863,438.69c-1.71-2.7-3.38-5.42-5.14-8.08-5.74-8.73-11.37-17.53-17.31-26.12-12.06-17.45-20.58-36.15-24.8-57.21a164,164,0,0,0-20.58-53.81c-5.36-8.77-9.94-18-15.38-26.75-4.26-6.84-9.31-13.19-14-19.76-6.8-9.53-13.51-19.14-20.45-28.57-4.13-5.63-8.78-10.88-12.94-16.49-6.3-8.51-12.22-17.3-18.58-25.75-9.26-12.28-18.74-24.4-28.17-36.54-3.33-4.28-6.69-8.57-10.28-12.63-6.37-7.18-12.92-14.21-19.43-21.27C648.81,98,642,90.09,634.51,82.79c-8.37-8.17-17.19-15.9-26.06-23.53-10.89-9.39-21.79-18.79-33.15-27.59-8.79-6.82-18.26-12.76-27.48-19C542.39,8.94,537,5.17,531.38,1.79A403.82,403.82,0,0,0,467-29.55c-14.6-5.57-29.37-10.88-44.4-15-23.83-6.61-47.72-13.44-72-17.81-26.18-4.71-52.8-5.35-79.53-3-23.62,2.06-46.39,7.55-68.94,14.15-18.47,5.41-36.7,11.71-54.82,18.23C130.33-27,113.42-20.69,97-13.4,81.69-6.62,67,1.49,52.11,9.22c-16.37,8.52-32.72,17.09-48.88,26C-8.14,41.47-19.37,48-30.33,55c-8,5.06-15.5,10.82-23,16.52-9.24,7-18.85,13.59-27.27,21.46C-95,106.4-108.72,120.6-122.5,134.67a286.28,286.28,0,0,0-19.37,21.4c-6.68,8.36-12.62,17.34-18.83,26.08-4.05,5.7-8.24,11.31-11.94,17.23-6.43,10.29-12.48,20.82-18.79,31.19-3,5-6.41,9.83-9.49,14.83q-13.72,22.3-27.35,44.66c-.5.82-1.13,1.57-1.7,2.35V263c2.91-4.7,5.79-9.41,8.73-14.09,7.78-12.41,15.48-24.88,23.41-37.19,9.9-15.37,19.57-30.91,30.15-45.8,8.24-11.59,17.4-22.56,26.75-33.29,8-9.24,16.85-17.81,25.44-26.56C-109.07,99.5-102.6,93-95.88,86.72c4.38-4.08,9.21-7.67,13.9-11.41,11.9-9.48,23.28-19.74,35.89-28.16,15.54-10.36,32-19.43,48.31-28.56,13-7.3,26.5-13.82,39.75-20.73C53.85-8.33,65.51-15,77.59-20.7c12.86-6.11,26.08-11.47,39.2-17,8.22-3.49,16.38-7.26,24.85-10,18.82-6.19,37.82-11.82,56.74-17.71,26.41-8.22,53.21-14.21,81-15.53,32.5-1.54,64.65.54,96.31,8.25,16,3.9,32,8.09,47.8,12.72,10.59,3.1,21,7,31.29,10.92,17.19,6.53,34.62,12.64,51.3,20.33,13.64,6.3,26.52,14.35,39.4,22.18C556.76.23,567.87,7.5,578.57,15.28c10,7.28,19.6,15.22,29,23.3q16.5,14.13,32.33,29C648.85,76,657.65,84.55,666,93.52c7.87,8.46,15,17.56,22.56,26.34,3.09,3.61,6.46,7,9.37,10.72,6.43,8.24,12.64,16.65,19,25,4.31,5.68,8.74,11.27,12.93,17,6.55,9,12.76,18.29,19.47,27.19,8.64,11.49,17.94,22.5,26.38,34.13,6.54,9,12.43,18.49,18.2,28,6.14,10.12,11.75,20.55,17.68,30.8,7.34,12.69,12.18,26.36,16,40.42,2.19,8.1,3.91,16.33,6,24.44C838.79,377.42,851,393.3,863,409.26Z" transform="translate(230.72 138.15)"/><path class="cls-4" d="M863,309.22v30.26c-1.14-1.73-2.31-3.44-3.41-5.2-9-14.28-17.65-28.79-27.08-42.79-8.34-12.39-17.42-24.29-26.38-36.24-6.53-8.7-13.46-17.08-20.11-25.69q-17.79-23-35.47-46.19c-7.2-9.4-14.1-19.05-21.6-28.2-9.38-11.45-19.25-22.51-28.9-33.75-6.82-7.93-13.37-16.1-20.49-23.75-8-8.67-16.56-16.92-24.94-25.29C647.19,65,640,57.42,632.2,50.44c-9.64-8.66-19.43-17.22-29.74-25.06-15.76-12-31.6-24-48.19-34.77a498.47,498.47,0,0,0-48-27.43c-14.81-7.45-30.41-13.39-45.81-19.6-12.95-5.22-26.16-9.78-39.17-14.83-6.38-2.47-12.39-6.13-18.92-8-32.28-9.16-65.1-15.57-98.75-16.36a338.8,338.8,0,0,0-39,1c-24.38,2.24-47.6,10-70.92,16.87-12.84,3.81-25.31,8.87-37.87,13.58q-22.74,8.52-45.33,17.43c-12.49,4.92-25,9.78-37.27,15.2C56.37-24,39.69-16.11,23-8.29c-4.43,2.07-8.72,4.45-13,6.85-10,5.6-20,11.06-29.74,17-6.3,3.86-12.12,8.5-18.13,12.83-8.71,6.27-17.77,12.11-26,19C-75.34,56.92-86.58,66.83-97.21,77.3c-17.22,17-34,34.41-50.71,51.9-8.77,9.17-17.55,18.44-25.28,28.46-8.34,10.8-15.59,22.45-23.08,33.89-4.5,6.89-8.5,14.1-12.79,21.12q-9.19,15-18.52,30a20.65,20.65,0,0,1-2.38,2.69V216.74a12.11,12.11,0,0,0,1.9-2c4.18-6.92,8.24-13.92,12.48-20.81,2.49-4,5.28-7.9,7.88-11.88,6-9.1,11.23-18.74,18-27.23,10.74-13.53,22.21-26.5,33.81-39.32,8-8.88,16.82-17.08,25.24-25.62,6.93-7,13.58-14.38,20.79-21.13,9.06-8.47,18.72-16.28,27.82-24.71a366.56,366.56,0,0,1,51.22-39A451.27,451.27,0,0,1,10.37-18.09C30-27.94,49.75-37.4,69.83-46.17c16.11-7,32.79-12.78,49.19-19.15,16.8-6.53,33.44-13.52,50.4-19.57,15.13-5.4,30.54-10.07,46-14.54,20.07-5.81,40.4-10.26,61.43-11,28.26-1,56.28.75,84,6.35C381.36-100,402-96.77,421.41-87.78c15.55,7.22,31.78,13.06,48,18.77,18.48,6.52,36.07,15,53.67,23.43,7.53,3.61,14.47,8.45,21.64,12.78,9.55,5.77,19.4,11.11,28.5,17.52,12.54,8.83,24.55,18.43,36.69,27.82,8.26,6.39,16.63,12.69,24.48,19.56,8.7,7.63,16.9,15.81,25.23,23.85,7.62,7.34,15.37,14.57,22.6,22.29,8.3,8.84,16.1,18.16,24.1,27.28,7.44,8.49,15,16.86,22.23,25.54,6.41,7.71,12.37,15.81,18.6,23.67,9.46,11.91,19.14,23.65,28.43,35.69,6.38,8.27,12.15,17,18.38,25.39,7.25,9.75,14.68,19.37,22.09,29,2.38,3.1,5.08,5.95,7.4,9.09q9.09,12.27,18,24.71c5,6.91,9.78,13.91,14.67,20.87C858.35,302.73,860.66,306,863,309.22Z" transform="translate(230.72 138.15)"/><path class="cls-4" d="M379.55,974.22c-6.22-2.79-12.47-5.53-18.66-8.38-5.72-2.62-11.42-5.29-17.06-8.07-9.77-4.81-19.59-9.52-29.2-14.63-16.91-9-33.38-18.82-48.21-31-7.83-6.42-14.85-13.87-22-21.07-8.66-8.7-17.13-17.57-25.59-26.47-6.81-7.16-13.18-14.76-20.27-21.62-7.6-7.35-15.85-14-23.74-21.09q-13.58-12.13-27-24.43c-7.28-6.7-14.91-13.11-21.48-20.46-7.58-8.49-14.33-17.74-21.12-26.91-3.72-5-7.46-10.27-10-16-6.9-15.4-14.49-30.67-19.43-46.72C63.1,646.21,58,603.81,58.88,560.61a372.4,372.4,0,0,1,7.92-69.15c3.57-17,6.67-34.09,11.57-50.68,7-23.85,14.7-47.58,26.46-69.7,7.06-13.29,13.25-27.11,21.1-39.91s15.9-25.9,26.21-37.21c8.27-9.06,16-18.65,24.55-27.41a271.25,271.25,0,0,1,21.82-19.34c11-9.05,21.79-18.45,33.54-26.42,11.27-7.64,23.53-13.85,35.57-20.3A235.3,235.3,0,0,1,291.88,189c19.17-7.6,38.88-13.22,59.54-15.14,31.69-2.93,62.44,1.52,92.83,10.56,13.88,4.13,27,9.91,40.22,15.51,13.53,5.71,25.72,13.52,37.42,22,8.38,6.07,15.9,13.56,22.9,21.24,9.29,10.2,17.71,21.2,26.46,31.89,3.19,3.9,2.77,8.36-.87,11s-8.62,1.6-11.52-2.08c-8.55-10.86-16.91-21.9-26-32.3-8.76-10-19.41-17.94-30.66-25.16a228.71,228.71,0,0,0-48.57-23.46c-24.23-8.45-49.13-14.6-75-15.24a192,192,0,0,0-72.44,11.79,251.4,251.4,0,0,0-35,15.91c-9,5-17.94,10.18-26.62,15.72-9.39,6-18.9,11.95-27.54,18.93A360.4,360.4,0,0,0,187.53,277c-9,9.09-17.36,18.9-25.64,28.7a251.85,251.85,0,0,0-31.34,47.47c-7.8,15.13-15.71,30.31-22.08,46.07a512.82,512.82,0,0,0-17.78,52.41c-4.44,15.71-7.28,31.9-10.49,47.94-4.76,23.71-6.2,47.71-6,71.87.24,26.81,1.51,53.51,7.72,79.69,4.8,20.25,9.83,40.42,18.4,59.58,8.28,18.55,18,36.16,32.29,50.64,15.35,15.6,31.65,30.25,47.63,45.21,10.9,10.21,22.33,19.87,32.86,30.44,14.46,14.52,28.35,29.61,42.37,44.57,9.39,10,19.4,19.36,31,26.75,13.3,8.46,26.49,17.18,40.37,24.61,13.25,7.1,27.32,12.67,41,19,4.58,2.1,9.06,4.42,13.67,6.43,11.13,4.85,22.33,9.57,33.48,14.38a15.4,15.4,0,0,1,2.36,1.54Z" transform="translate(230.72 138.15)"/><path class="cls-4" d="M468.66,974.22c-6.79-2.51-13.54-5.17-20.39-7.51-14-4.78-28.25-9-42.1-14.19-12.94-4.86-25.72-10.24-38.17-16.22-12.8-6.14-25.55-12.59-37.53-20.17-13.06-8.25-25.27-17.86-37.73-27-7.5-5.53-14.84-11.3-22.14-17.11-3.06-2.43-5.82-5.24-8.76-7.82s-6-5-8.84-7.64c-3.27-3-6.31-6.32-9.56-9.39-8.8-8.32-17.68-16.56-26.48-24.89-9.11-8.63-18-17.45-27.27-25.94C179,786.46,168,777,157.32,767.18a232.92,232.92,0,0,1-29-33c-9-12.24-16.46-25.44-21.1-39.79-5.85-18.07-11.4-36.38-15-55-7.85-40.35-10.21-81-3.92-122C90.76,501,94,484.68,99.65,469c6.55-18.14,13.15-36.28,20.17-54.24,6.4-16.39,12.9-32.78,20.27-48.75a355.16,355.16,0,0,1,19.12-35.4c10.24-16.87,22.26-32.47,37.12-45.62,9.69-8.59,19.34-17.27,29.55-25.2,11.77-9.14,23.66-18.32,36.38-26,24.83-15.05,50.6-28.68,80.15-31.48,16.13-1.53,32.45-1,48.69-1.31,25.92-.47,50.38,6.17,74.29,15.43,6,2.32,12,4.44,17.92,7,4.67,2,6.42,6.06,4.66,9.72-2.07,4.31-6,5.46-10.93,3.51-19.51-7.76-39.16-15.17-60-18.72a154.76,154.76,0,0,0-18.41-1.55c-21.3-1-42.65-1.18-63.7,2.36-9.52,1.6-18.76,5.37-27.89,8.82a170.58,170.58,0,0,0-36.26,19.12C259,254.73,246.74,262.34,235.31,271a306.49,306.49,0,0,0-26.4,23.14c-8.15,7.78-16.44,15.61-23.29,24.49a208.87,208.87,0,0,0-19.7,31c-9.81,18.82-19.33,37.87-27.6,57.4-7.67,18.11-13.66,36.93-20.18,55.52-3.75,10.68-8,21.3-10.46,32.29-6.28,28.1-9.43,56.6-7.79,85.47,1.35,23.52,4.28,46.86,9.79,69.76,2.78,11.54,7.11,22.7,10.07,34.21,2.61,10.18,7.36,19.27,12.29,28.39,6.49,12,15.18,22.42,24.19,32.47,6.67,7.44,14.46,13.88,21.84,20.67q14.16,13,28.46,25.89c7.43,6.74,15.06,13.28,22.31,20.22,8.35,8,16.1,16.63,24.62,24.43,13.29,12.18,26.77,24.16,40.62,35.69a285.71,285.71,0,0,0,25.44,18.32c13.76,9.09,27.25,18.8,41.83,26.35a448.47,448.47,0,0,0,51.08,22.1c25.05,9.25,50.49,17.44,75.86,25.77,9.55,3.14,19.39,5.41,29.09,8.12,1.45.4,2.83,1,4.25,1.54Z" transform="translate(230.72 138.15)"/><path class="cls-4" d="M-230,365.55c3.63-6.7,7.14-13.46,10.89-20.09,12-21.16,24-42.31,36.1-63.36,6.83-11.83,14.14-23.38,21-35.19,4.27-7.36,7.77-15.17,12.17-22.43,6.22-10.26,12.62-20.43,19.55-30.21,8.55-12.07,17.44-23.93,26.72-35.45,6.1-7.58,13.08-14.45,19.76-21.56,7.45-7.91,15.06-15.68,22.5-23.61C-50.8,102.47-40.8,90.8-29.85,80.12c7.54-7.35,16.28-13.48,24.61-20C.05,56,5.38,51.89,11,48.31,21,42,31.3,36,41.46,29.92c1.68-1,3.42-1.91,5.14-2.85C61.89,18.66,76.93,9.75,92.53,2c23.23-11.6,46.62-23.17,71.6-30.5C188.51-35.7,213.07-42.9,238-47.29a381.58,381.58,0,0,1,116.34-2.1,386.3,386.3,0,0,1,59.37,12.93A358.17,358.17,0,0,1,462-18.31C475.49-12.07,489.44-6.64,502.64.22c14.62,7.6,28.75,16.17,42.79,24.8,11.53,7.09,22.9,14.49,33.81,22.47,11.6,8.48,22.68,17.68,33.81,26.79,7.54,6.18,15.16,12.34,22,19.22,8.26,8.28,15.84,17.23,23.57,26A158.78,158.78,0,0,1,669,132.58c2.66,3.78,1.75,7.69-1.77,10.42-2.68,2.08-7,1.45-9.79-1.76s-5-6.7-7.82-9.74c-8.14-8.77-16.24-17.6-24.79-26-9.07-8.86-18.24-17.71-28.08-25.68-12-9.73-24.61-18.77-37.24-27.7-10.7-7.57-21.55-15-32.8-21.69S503.86,17.53,492,12C471.6,2.43,451.3-7.54,430.21-15.27c-24-8.79-48.6-15.55-74.24-18.8-36.55-4.64-72.79-4.79-109.25.7a427,427,0,0,0-65.32,15c-15.14,4.79-30,10.56-44.73,16.56-10.71,4.36-21,9.67-31.42,14.81-12.75,6.32-25.59,12.51-38,19.47C52.15,41,37.52,50.3,22.58,59.05A211.42,211.42,0,0,0-15.11,86.88c-8.57,8-16.17,17-24.31,25.48-13.47,14-27.28,27.7-40.46,42-8.12,8.8-15.63,18.22-22.91,27.75-8.47,11.08-16.79,22.31-24.42,34-6.32,9.66-11.47,20.08-17.27,30.09-3.44,5.92-7.19,11.65-10.69,17.54-1.78,3-3.25,6.16-5,9.18-3.2,5.56-6.54,11.05-9.74,16.61-8.13,14.17-16.33,28.29-24.28,42.55-8.84,15.86-17.47,31.85-26.12,47.81-3.32,6.12-6.46,12.33-9.68,18.5Z" transform="translate(230.72 138.15)"/><path class="cls-4" d="M863,843.91c-7.29-2.77-15-4.76-21.78-8.46-19.53-10.65-40.42-17.61-61.33-24.78-10.22-3.51-19.86-8.88-29.45-14-8-4.27-15.37-9.68-23.32-14.06-12.58-6.92-25.47-13.28-38.11-20.11-7.5-4-14.76-8.54-22.11-12.85-9.51-5.57-19.12-11-28.47-16.82-6-3.76-11.64-8.17-17.45-12.27-3-2.1-6.12-4-8.88-6.28-8.43-7.1-16.8-14.27-25-21.59-9.17-8.15-18.43-16.22-27.18-24.81s-16.69-17.6-25-26.41c-6.32-6.68-13.1-13-19-20-7.2-8.67-13.75-17.89-20.43-27-8.58-11.7-17.17-23.41-25.45-35.32-6.13-8.83-12.12-17.78-17.56-27a183.18,183.18,0,0,1-23.53-69.38c-1.4-10.53-.12-20.76,5.44-30A26.5,26.5,0,0,1,453,420.24c16.58-2.95,30.77,2.87,43.65,12.91,3.73,2.91,8.14,5,11.58,8.22,7.54,7,14.87,14.28,21.91,21.79,8.86,9.47,17.68,19,25.92,29s16.22,20.58,23.7,31.3c10.46,15,20.45,30.33,30.48,45.62,8.34,12.73,16.53,25.56,26.62,37,2.2,2.49,5.13,4.31,7.5,6.66,8.11,8,16,16.29,24.19,24.28,9,8.77,18,17.47,27.24,26,5,4.63,10.44,8.79,15.63,13.23a35.76,35.76,0,0,1,4.75,4.7c2.49,3.15,2.08,6.82-.84,9.85a6.12,6.12,0,0,1-8.76.6c-7.95-6.37-15.63-13.09-23.33-19.76-3.9-3.38-7.79-6.79-11.4-10.46-7.14-7.26-13.89-14.91-21.16-22-7.95-7.81-16.94-14.65-24.31-22.94-8-9-15.07-19-21.88-29-9-13.15-17.07-26.88-26-40.09-5.66-8.44-12.2-16.27-18.07-24.57-12.76-18-27.25-34.62-42.24-50.79-11.46-12.36-23.94-23.53-38.54-32.13a33.72,33.72,0,0,0-27.52-3.41c-4.78,1.41-7.05,6.24-7.59,10.8-.73,6.18-1.37,12.75,0,18.7A293.32,293.32,0,0,0,455.35,504c5.44,14.7,13.95,27.9,23.13,40.66,6.41,8.91,12.14,18.31,18.28,27.41,1.7,2.52,3.89,4.72,5.72,7.17,4.67,6.29,8.94,12.92,14,18.91,7.6,9.08,15.67,17.76,23.6,26.57,6.33,7,12.52,14.22,19.18,20.94,8.33,8.41,17.1,16.39,25.66,24.58,4.25,4,8.2,8.44,12.69,12.2,10.81,9,21.38,18.5,32.92,26.54,14.86,10.34,30.38,19.75,45.94,29,13.43,8,27.36,15.15,41,22.82,9.84,5.54,19.49,11.4,29.33,16.93,9.37,5.27,18.71,10.65,28.38,15.32,6,2.9,12.5,4.83,18.92,6.73,20.34,6,39.6,14.54,58.32,24.43,3.26,1.73,7,2.48,10.6,3.69Z" transform="translate(230.72 138.15)"/><path class="cls-4" d="M-230,602.63c4-4.79,8.19-9.39,11.84-14.41,8-11.06,16.32-22,23.48-33.62,7.53-12.19,14-25,20.65-37.76,4.6-8.79,8.87-17.76,13-26.78,7.45-16.26,14.32-32.79,22.1-48.87,7.61-15.73,15.86-31.14,24.2-46.5,6-11,12.08-22.05,19-32.5a387.9,387.9,0,0,1,23.93-32.38c9.21-11.16,19.14-21.75,29.11-32.25,6.79-7.16,14.2-13.74,21.31-20.6C-12.5,268.44-4,259.58,5.2,251.44c15.35-13.62,31-26.85,46.7-40.12,8.51-7.21,17.06-14.38,25.92-21.15,13-9.92,26.21-19.5,39.4-29.13q13.68-10,27.57-19.7c8.24-5.75,16.32-11.81,25-16.83,18.61-10.77,37.23-21.59,56.47-31.15a249.76,249.76,0,0,1,39.52-15.15C280.2,73.89,295.09,71,309.89,68c21.39-4.31,42.9-3.86,64.32,0,17.88,3.18,35.7,6.66,53.52,10.16a51.31,51.31,0,0,1,8.73,3c4.42,1.76,6.54,5.82,5.24,9.66-1.24,3.65-5.71,5.46-10.13,4.2a426,426,0,0,0-77.41-14.5c-20.24-1.89-40,1.06-59.49,5.94-14.07,3.52-28.17,7.27-41.75,12.28-16.37,6-32.52,12.85-47.43,22.16-8.29,5.17-16.71,10.11-24.91,15.4-12.33,7.95-24.63,15.93-36.72,24.22-9.77,6.71-19.27,13.83-28.79,20.89-12.12,9-24.25,17.94-36.16,27.2-8,6.24-15.64,13-23.48,19.49-8.7,7.19-17.77,14-26.1,21.56Q6.09,270.75-16.41,292.73C-27.85,303.86-39.13,315.18-49.86,327a291.66,291.66,0,0,0-21,26.56c-8.68,12.13-17.28,24.38-24.93,37.17-7.22,12.08-13.18,24.91-19.68,37.42-4.06,7.81-8.39,15.51-12.08,23.5-5.89,12.79-11.3,25.8-17,38.67-2.83,6.39-5.84,12.71-8.9,19-4.87,10-9.24,20.39-14.92,29.95-10,16.79-20.52,33.29-31.41,49.5-5.9,8.78-13,16.75-19.62,25-3.39,4.23-7,8.28-10.51,12.41Z" transform="translate(230.72 138.15)"/><path class="cls-4" d="M863,883.42c-18.14-1.4-36.35-2.26-54.41-4.35-18.45-2.13-36.94-4.64-55.08-8.56-13.18-2.84-25.91-8-38.65-12.56-14.82-5.37-29.5-11.14-44.11-17-10-4-19.7-8.69-29.63-12.86-17.1-7.17-33-16.62-48.33-26.82a302.43,302.43,0,0,1-28-20.53c-17.19-14.48-34.57-28.86-50.59-44.58-20.85-20.44-40.53-42.08-60.55-63.35-9.55-10.14-18.82-20.56-28.07-31-6.48-7.29-13.17-14.46-19-22.28-9.38-12.68-18.54-25.58-27-38.91-7.74-12.24-15.23-24.79-21.34-37.89-14.87-31.92-24.11-65.31-22.33-101A156.43,156.43,0,0,1,353.92,376c6.16-11.72,14.28-21.77,23.45-30.89,11.44-11.37,24.34-21.18,40.37-25.3,8.37-2.15,17-3.3,25.6-4.48,4.15-.57,6.92,2.37,7.48,6.83a7.11,7.11,0,0,1-5.91,7.84,80.69,80.69,0,0,1-8.31,1.19,69.27,69.27,0,0,0-33,11.3c-7.38,4.86-13.54,11.66-20,17.87-13.67,13.19-21.76,30-26.94,47.66-7.16,24.46-7.73,49.51-2.65,74.79a221.19,221.19,0,0,0,12.81,41.56c5.3,12.78,11.08,25.29,18.69,36.93,6.17,9.44,11.56,19.38,17.7,28.84,3.57,5.5,7.85,10.54,11.93,15.69,7.19,9.06,14.24,18.25,21.8,27,6.65,7.68,13.91,14.84,20.9,22.23,1.16,1.22,2.35,2.4,3.46,3.66,7.4,8.34,14.61,16.86,22.22,25,8.48,9.07,17.33,17.78,26,26.67,6.41,6.58,12.56,13.41,19.2,19.74,6.85,6.53,14.17,12.55,21.24,18.85,3.75,3.35,7.14,7.16,11.12,10.18,13.1,10,26.12,20.06,39.72,29.31a277.58,277.58,0,0,0,33.45,19.83c13.88,6.83,28.46,12.21,42.72,18.28,10.55,4.49,20.88,9.57,31.63,13.49,16.15,5.89,32.29,12.22,49,16.08,18.48,4.28,37.5,6.48,56.39,8.65,16.25,1.86,32.66,2.41,49,3.54Z" transform="translate(230.72 138.15)"/><path class="cls-4" d="M863,933c-9.59,1.11-19.18,2.17-28.76,3.35-25.43,3.14-50.88,2.56-76.34.46-18.26-1.5-36.58-2.57-54.76-4.75-28.49-3.41-56.87-7.75-85.33-11.39-19.76-2.52-38.1-10-57.06-15.32a382.94,382.94,0,0,1-57.94-22.06c-11.62-5.45-22.93-11.66-33.95-18.24-24.61-14.72-46.76-32.49-65.36-54.51-8.55-10.13-17.45-20-26.26-29.89-6.57-7.4-13.86-14.25-19.72-22.16-9.21-12.43-17.92-25.29-26.05-38.45-10.31-16.69-17.68-34.78-23.79-53.45-3.65-11.14-8.12-22-12.8-32.81-4.27-9.82-9-19.5-14.11-28.88-13.4-24.43-26.41-49.12-33.29-76.23-4.53-17.82-6.94-36.2-9.79-54.42-1.1-7-.91-14.24-1.1-21.38-.14-5.41,2.75-8.81,7.27-9,4.12-.2,7.46,3.52,7.53,8.87a276.58,276.58,0,0,0,7,57c4.06,18.21,9.21,36,17.82,52.68,5.24,10.16,10.66,20.22,15.89,30.39,5.42,10.56,11.44,20.89,15.87,31.86,7.07,17.47,12.61,35.57,19.63,53.07,5,12.42,10.47,24.8,17.32,36.25,7.28,12.14,16.13,23.39,24.86,34.6,7.44,9.55,15.65,18.51,23.58,27.67,8.56,9.9,16.93,20,25.88,29.51,7,7.5,14.71,14.43,22.32,21.36a111,111,0,0,0,14.36,11.56c11.23,7.24,22.72,14.09,34.25,20.86,7.11,4.17,14.22,8.51,21.8,11.65,14.69,6.09,29.62,11.61,44.6,16.93,12.26,4.36,24.64,8.41,37.13,12,22.14,6.38,45,9,67.75,11.85,17.79,2.24,35.53,5,53.38,6.39,34.6,2.61,69.15,7.33,104,4.48,13-1.06,25.87-2.93,38.8-4.42,1.81-.21,3.62-.37,5.43-.56Z" transform="translate(230.72 138.15)"/><path class="cls-4" d="M319,974.22c-3.2-2.19-6.29-4.55-9.61-6.52-9.83-5.85-19.76-11.51-29.62-17.3-2.4-1.41-4.62-3.15-7-4.53Q253.64,935,234.47,924.23c-15-8.38-30.19-16.4-45-25.07q-20-11.71-39.39-24.57a246.94,246.94,0,0,1-25.79-19.18c-7-6.08-13-13.37-19.34-20.19-8.27-8.87-16.23-18-24.74-26.66-8.12-8.24-16.84-15.89-25.19-23.92C42.64,772.74,30.06,761,18.15,748.69c-10.87-11.25-21.51-22.82-31.31-35-20-24.87-25.67-54.09-23.88-85.22a238.26,238.26,0,0,1,15.34-71.1c5.89-15.53,12-31,17.41-46.69,6.37-18.33,12-36.91,18.21-55.3q6.23-18.47,13.16-36.7C32.27,405,37.5,391.33,43.34,377.92a161.35,161.35,0,0,1,11.55-20.85c5-8,10.39-15.84,15.91-23.52,3.07-4.27,7.8-4.52,11.22-1.18,2.83,2.77,2.79,6.5.61,9.82-7.67,11.66-16.1,22.95-22.47,35.29a345.18,345.18,0,0,0-22.09,53.79c-6.48,20.36-13.13,40.67-20.24,60.82-6.27,17.78-13.61,35.18-19.86,53-11,31.33-21.45,62.88-20.16,96.74a148,148,0,0,0,3.42,27.87A68.55,68.55,0,0,0-10.1,690.4C-4,700,3.14,709,10.34,717.89c6.75,8.31,13.9,16.33,21.34,24,7.85,8.11,16.19,15.74,24.43,23.46,9.46,8.87,19.12,17.54,28.57,26.42,6.71,6.3,13.47,12.58,19.72,19.32,5.95,6.42,11.2,13.5,16.9,20.16a67.83,67.83,0,0,0,8.47,8.72c9.74,7.9,19.3,16.1,29.65,23.12,12.7,8.61,26,16.37,39.27,24.07,17.16,10,34.58,19.45,51.86,29.2q15.31,8.64,30.53,17.44c12.56,7.25,25.06,14.6,37.62,21.87C329.43,961.9,340.21,968,351,974.22Z" transform="translate(230.72 138.15)"/><path class="cls-4" d="M-230,517.72c2.71-4,5.55-7.91,8.1-12a109.8,109.8,0,0,0,6.58-11.66c5.09-10.88,10.32-21.71,14.77-32.85,4.67-11.67,8.39-23.71,12.74-35.52s8.83-23.54,13.53-35.2c1.24-3.06,3.42-5.76,5.32-8.52,7.16-10.31,14.13-20.78,21.66-30.82q14.21-18.94,29.22-37.26c6-7.33,12.67-14.08,19-21.12,6.9-7.66,13.55-15.55,20.67-23,7.62-7.95,15.7-15.46,23.5-23.23,7.61-7.57,15-15.36,22.7-22.82,8.51-8.24,17.36-16.12,25.93-24.3s16.71-16.85,25.53-24.75C36.54,159.2,54.07,144,71.64,128.91c7.6-6.53,15.33-13,23.46-18.84,11.88-8.57,24-16.89,36.33-24.77C144,77.27,156.57,69,170,62.48s27.76-11,41.7-16.43c6.36-2.47,12.75-4.89,19-7.51,9.82-4.08,19.5-8.51,30.38-9.08,5.91-.3,9,1.64,9.42,6.42s-2.62,8.16-8.12,8.57c-10.56.78-19.86,5.4-29.42,9.33-6.7,2.76-13.6,5-20.34,7.71-10.27,4.06-20.7,7.79-30.64,12.57-10.53,5.06-20.66,11-30.78,16.88-9.76,5.67-19.62,11.26-28.81,17.78-11.59,8.22-22.56,17.32-33.76,26.1-8.77,6.87-17.53,13.77-26.18,20.8-3.35,2.71-6.41,5.78-9.55,8.74-28.24,26.69-56.84,53-84.58,80.2-21.07,20.65-41.19,42.27-61.43,63.75-7.81,8.29-14.91,17.26-22.11,26.11C-123.14,344.16-131,354-138.5,364c-6.9,9.32-14.36,18.48-19.54,28.74-6.57,13-11.21,27.06-16.46,40.75-4.24,11.08-8,22.35-12.28,33.42a263.08,263.08,0,0,1-10.36,24.24c-6.88,13.55-13.57,27.23-23,39.34-2.63,3.39-4.35,7.46-6.63,11.14a32.88,32.88,0,0,1-3.22,3.8Z" transform="translate(230.72 138.15)"/><path class="cls-4" d="M863,908.65c-6.7.34-13.39.86-20.09,1-23.65.52-47.31,1.26-71,1.26-36.88,0-73.57-3.74-110.07-8.43-21.3-2.73-42.21-8.48-63.31-12.78-15.19-3.09-29.49-8.64-43.32-15.48-10.49-5.19-21-10.27-31.35-15.82q-19.16-10.3-37.93-21.34c-13-7.65-25.53-16.31-35.63-27.58a178.89,178.89,0,0,1-20.06-27.19c-11.77-19.64-22.34-40-34-59.7-7.24-12.24-15.61-23.8-23.43-35.7a258.73,258.73,0,0,1-24.41-45.74c-1.77-4.41-3.73-8.75-5.32-13.22-1.48-4.14.42-7.93,4.41-9.55,3.81-1.55,7.21-.2,9.16,4,5.14,11.17,9.81,22.56,15.29,33.56,3.59,7.2,8.16,13.94,12.46,20.77,10.34,16.4,21.14,32.51,31,49.17,6.91,11.61,12.45,24,19,35.88,3.37,6.09,7.65,11.68,11.49,17.51,1.76,2.68,3.25,5.55,5.21,8.06a145,145,0,0,0,47.19,39.43c6.91,3.65,13.29,8.29,20.09,12.15,10,5.65,19.75,11.75,30.21,16.28,16.75,7.25,33,15.83,51.25,19.38,19.89,3.86,39.47,9.78,59.5,12.5,28,3.8,56.25,5.9,84.45,7.95,35.23,2.57,70.51,2,105.74-.68,4.46-.33,8.93-.58,13.4-.87Z" transform="translate(230.72 138.15)"/><path class="cls-4" d="M419.9-118.7c5.52,2.25,11,4.51,16.56,6.74,11.13,4.47,22.36,8.73,33.39,13.43,17.73,7.56,35.62,14.81,52.88,23.34,13,6.42,25.23,14.36,37.5,22.11Q579.33-41,597.8-27.95C608.94-20.06,620.07-12,630.44-3.16,648.36,12.18,665.71,28.18,683.25,44c7.86,7.07,16.09,13.82,23.28,21.53,11.32,12.15,22,24.88,32.77,37.56,6.66,7.87,13,16,19.26,24.2,9.51,12.57,18.81,25.31,28.14,38,8.08,11,16,22.15,24.12,33.1,8.92,12,18.2,23.7,27,35.77,6.23,8.55,11.82,17.57,17.89,26.24,2.13,3,4.82,5.67,7.26,8.49v26.06c-2.36-2.87-4.87-5.61-7-8.61q-14.11-19.5-28.06-39.13c-6.55-9.19-13-18.47-19.55-27.64-4.24-5.9-8.72-11.62-13-17.48-6.41-8.77-12.7-17.62-19.14-26.36-2.56-3.48-5.47-6.7-8.11-10.13C761,156.4,753.9,147.22,747,138c-5.93-7.91-11.57-16-17.6-23.88-3.57-4.64-7.57-9-11.53-13.28-10.45-11.4-20.64-23.06-31.59-34-8.84-8.81-18.72-16.56-28-25-8.77-8-17.08-16.47-26-24.25-8.09-7-16.61-13.57-25.18-20-11.48-8.63-23-17.3-34.89-25.29-13.31-8.91-26.76-17.74-40.8-25.4-17-9.27-34.64-17.49-52.19-25.76-10.85-5.11-21.91-9.86-33.15-14.06-15.69-5.87-31.43-11.77-47.52-16.36-13.28-3.78-27.09-5.67-40.65-8.42-1.2-.25-2.37-.67-3.55-1Z" transform="translate(230.72 138.15)"/><path class="cls-4" d="M863,750.59c-4.54.58-7.73-1.4-10.24-5.08-5-7.37-10.33-14.56-15.25-22-9.18-13.85-18.33-27.72-27.16-41.8-8.47-13.48-16.35-27.33-24.76-40.84a231,231,0,0,1-22.15-45.45c-4.3-12.23-7.29-24.95-10.5-37.53-5.5-21.54-11.37-42.88-19.21-63.78-8.48-22.6-14.46-46.14-21.92-69.13Q701.35,392.87,690,361.05c-7.77-21.77-18-42.42-29.62-62.41-7.41-12.79-14.73-25.65-22.54-38.2-5.44-8.73-11.54-17.06-17.59-25.4-1.51-2.08-4-3.42-6-5.21q-15.25-14-30.46-28.09a7.3,7.3,0,0,1,9.74-10.88c5.68,5,11.25,10.1,16.87,15.16,5.09,4.57,10.62,8.74,15.2,13.78,6.93,7.63,14.07,15.3,19.57,23.94,10.19,16,19.63,32.5,28.67,49.17,8.78,16.2,17.16,32.66,24.78,49.43a383,383,0,0,1,14.88,39.18c7,21.38,13.12,43,19.88,64.51,5.08,16.13,10.46,32.18,15.9,48.2,3.41,10.06,7.77,19.83,10.66,30,4.38,15.45,8,31.14,11.7,46.78A188.55,188.55,0,0,0,791,620.41c6.05,10.69,12.12,21.37,18.49,31.87,3.76,6.2,8.29,11.92,12.17,18.05,6,9.55,11.78,19.31,17.78,28.89,3.77,6,7.79,11.91,11.69,17.86,1.22,1.87,2.32,3.82,3.62,5.63,2.67,3.72,5.44,7.38,8.17,11.07Z" transform="translate(230.72 138.15)"/><path class="cls-4" d="M-230,673.25c4.74-4.5,9.58-8.88,14.17-13.51,7.44-7.52,15.07-14.9,22-22.91s13-16.66,19.35-25.09c3.77-5,7.62-10,11-15.25,9.36-14.59,17.76-29.66,24.32-45.79,6.83-16.82,14.23-33.41,21.7-50,5.51-12.2,11.4-24.24,17.36-36.23,5.6-11.24,11.25-22.46,17.35-33.43,7.38-13.28,14.81-26.57,23-39.33,7.53-11.72,16.19-22.7,24.26-34.08,5.81-8.17,11.41-16.49,17.21-24.68,2.42-3.41,5.24-6.55,7.63-10,3.92-5.61,7.51-11.44,11.45-17,7.07-10,14.08-20.1,21.54-29.82,7-9.18,14.2-18.35,22.11-26.77,8.38-8.93,17.66-17,26.66-25.36,3.77-3.5,7.73-6.79,11.74-10s7.74-2.82,10.7.75c2.74,3.32,2.39,7-1.29,10.35-8.85,8.06-18.15,15.67-26.6,24.12-8.17,8.17-15.5,17.17-23.2,25.81-2,2.18-4.11,4.21-5.84,6.55C28.83,292.16,21,302.68,13.49,313.45c-6.13,8.79-11.6,18-17.71,26.84-4.23,6.07-9.25,11.58-13.58,17.58-5.94,8.25-11.53,16.75-17.35,25.09-2.94,4.22-6.32,8.16-9,12.52-7.82,12.72-15.41,25.58-23,38.41-3.5,5.88-7.07,11.74-10.29,17.78-3.34,6.27-6.36,12.71-9.4,19.14C-95,488-103.31,505.08-111,522.42c-6.82,15.29-12.82,31-19.52,46.3a147.84,147.84,0,0,1-9.36,17.33c-7.1,11.66-13.9,23.58-21.89,34.62A374.63,374.63,0,0,1-187.76,652c-9.63,10.65-19.92,20.71-30,30.92-3.9,3.94-8.11,7.58-12.18,11.36Z" transform="translate(230.72 138.15)"/><path class="cls-4" d="M53.35,974.22h-63a39.83,39.83,0,0,0-4-2.13c-6.34-2.55-12.74-4.93-19-7.55-20.88-8.67-41.69-17.51-62.6-26.09-5.66-2.32-11.83-3.44-17.36-6-20.6-9.57-41-19.61-61.54-29.3-14.89-7-29.89-13.8-44.89-20.59-3.53-1.6-7.24-2.79-10.87-4.17V858.2c1.39.09,2.77.28,4.16.26a461.4,461.4,0,0,1,73.27,4.5c20,2.94,40,6.61,59.95,10.11,15.2,2.66,28.71,9.86,41.07,18.32,19,13,36.9,27.59,55.3,41.47,2.33,1.76,5.11,3,7.24,4.95,8.72,8,17.08,16.42,26,24.25C42.05,966.54,47.87,970.19,53.35,974.22Zm-245.87-105.8c-3.61,0-7.46,3-7.79,6.15-.38,3.72,1.23,6.71,4.77,8a84.56,84.56,0,0,0,11.69,3.3c11.58,2.43,22.61,5.89,32.23,13.25a101.53,101.53,0,0,0,16.94,10.78c9.26,4.54,19,8.14,28.42,12.31,22.13,9.77,44.83,18,67.79,25.6,9.93,3.28,20,6.28,29.58,10.42,7.48,3.24,14.34,7.93,21.35,12.17a8,8,0,0,0,10.24-1.63c2.65-3.09,2.68-7.09-.54-9.72a80.72,80.72,0,0,0-11.73-8c-16-8.86-33.32-14.21-50.68-19.66C-54.88,926.75-69.16,921-83.49,915.5c-8.61-3.31-16.77-8-25.57-10.54-12.88-3.77-23.82-10.87-34.76-18-8.59-5.61-17.08-11.14-27.28-13.41C-178.33,871.92-185.51,870.1-192.52,868.42Zm79.8,9c-4.67.53-7.23,2.34-8.24,6-1.1,4,1,6.53,4.24,8.15s6.49,2.54,9.68,3.95c8.78,3.9,17.5,7.92,26.28,11.83,8,3.59,16,7.29,24.2,10.55,4.22,1.69,7.66-.5,9.08-4.92a7.42,7.42,0,0,0-3.79-9.16c-16-7-31.91-14-47.89-21C-103.88,880.78-108.71,879-112.72,877.38Z" transform="translate(230.72 138.15)"/><path class="cls-4" d="M863,253.73Q851,236.89,839,220c-4-5.58-8.11-11-12-16.68-5.61-8.15-11-16.42-16.58-24.62-4.61-6.81-9.07-13.74-13.94-20.36-7.93-10.81-15.84-21.65-24.31-32-7.13-8.74-15.47-16.5-22.53-25.3-11-13.7-21.7-27.67-31.83-42-4.45-6.31-7.35-13.75-10.71-20.8-15.15-31.84-38.51-57-64.62-80-11.32-10-22.87-19.66-34.4-29.37-9.28-7.81-18.41-15.85-28.11-23.1-10.72-8-22-15.22-33.06-22.81a13.15,13.15,0,0,1-1.72-1.7h26.9c5,3.57,10,7,14.87,10.76q11,8.58,21.79,17.55c11.91,9.92,23.88,19.77,35.5,30,8.86,7.83,17.32,16.14,25.76,24.45,7,6.92,14.21,13.77,20.5,21.35C700.28-2.76,709.4,9.54,716,23.58a281.61,281.61,0,0,0,14,25.27c5.53,9.16,10.79,18.63,17.49,26.89,12.24,15.07,25.45,29.36,38.25,44,2.2,2.51,4.6,4.88,6.57,7.56q10,13.62,19.83,27.42c4.13,5.8,8.23,11.62,12.17,17.55,6.09,9.18,11.94,18.52,18.08,27.67,4.21,6.26,8.68,12.34,13.15,18.42,2.35,3.2,4.94,6.23,7.42,9.33Z" transform="translate(230.72 138.15)"/><path class="cls-4" d="M205.52,974.22c-5.59-2.82-11.28-5.45-16.74-8.5-6.95-3.89-13.82-7.94-20.53-12.23q-14.62-9.35-28.92-19.19c-5.74-4-11.12-8.47-16.65-12.75-8.16-6.31-16.35-12.58-24.44-19-4.16-3.3-7.95-7.06-12.2-10.24C70.82,881,55.8,869.31,40.1,858.66,27.18,849.9,13.48,842.25,0,834.38a383.26,383.26,0,0,0-62.29-28.67c-7.75-2.81-15.25-6.4-23.13-8.77a221.51,221.51,0,0,0-73.45-8.84c-7.42.31-14.85.28-22.28.23-4.66,0-8-3.15-8.23-7.29a7.53,7.53,0,0,1,7.56-7.51c21,.22,42-.15,63,1.35,22,1.58,43,8.61,63.28,17.28,15.27,6.52,30.7,12.69,45.8,19.61C-2.22,815.24,4.8,820,12,824.22c9.85,5.81,19.72,11.59,29.44,17.61,5.7,3.53,11.13,7.51,16.69,11.28,3.68,2.5,7.51,4.81,11,7.52q15.94,12.24,31.68,24.73c7.32,5.81,14.35,12,21.78,17.67,9,6.84,18.12,13.51,27.43,19.89C163.1,931.84,176,941,189.6,949c11.76,6.87,24.48,12.11,36.71,18.19,4.37,2.17,8.57,4.69,12.84,7.05Z" transform="translate(230.72 138.15)"/><path class="cls-4" d="M266.89,974.22c-5.14-2.69-10.26-5.43-15.45-8.05-8.1-4.09-16.33-7.93-24.35-12.17-10.35-5.47-20.81-10.81-30.76-17-16.37-10.12-32.47-20.68-48.49-31.34-8.8-5.86-17.74-11.71-25.66-18.65-9.75-8.55-18.59-18.15-27.68-27.43C84.09,849,74.26,837.74,63.42,827.56,49,814,33.92,801.13,18.94,788.18c-17.4-15-33-31.64-46-50.68-8.77-12.9-17.38-25.93-25.71-39.12a75.17,75.17,0,0,1-6.39-14.11,18.38,18.38,0,0,1-.87-7.84c.36-3.73,2.88-6,6.62-6.49s6.87,1.54,7.35,4.87c1.8,12.2,9.66,21.18,15.7,31.12,4,6.55,8.11,13,12.54,19.28,4.2,5.92,8.77,11.59,13.37,17.21,5.64,6.89,11,14.05,17.35,20.27,7.33,7.21,15.61,13.45,23.35,20.26,9.1,8,18,16.2,27.08,24.3,7.36,6.61,15.07,12.87,22,19.89,7.34,7.44,13.9,15.64,20.91,23.4,2.8,3.09,5.81,6,8.9,8.8,10,9.06,19.69,18.63,30.36,26.87,11.11,8.56,23.13,16,34.93,23.58s23.82,15.66,36.29,22.47c12.94,7.08,26.59,12.89,39.89,19.34,5.53,2.68,10.95,5.58,16.42,8.4q13.74,7.1,27.46,14.22Z" transform="translate(230.72 138.15)"/><path class="cls-4" d="M117.25-118.7c-7.5,3.69-15.14,7.12-22.47,11.12C75.29-96.94,55.6-86.6,36.67-75,27.25-69.27,19.4-61,10.68-54,1.41-46.65-8.08-39.55-17.44-32.28c-4.29,3.34-8.46,6.84-12.78,10.16-10,7.64-20.14,15-29.88,22.88C-70.38,9.11-80.55,17.64-90.22,26.69c-10.88,10.17-21.41,20.75-31.58,31.62-9.12,9.76-17.63,20.08-26.26,30.29-13.94,16.51-28,32.92-41.53,49.78-6.78,8.45-12.38,17.86-18.68,26.71-7.13,10-14.46,19.87-21.7,29.79V169.66c.89-1.06,1.86-2.06,2.64-3.2,7.45-11,14.54-22.15,22.38-32.81,7.09-9.65,14.89-18.79,22.55-28,9-10.82,18-21.69,27.37-32.14,16-17.73,31.56-35.93,48.72-52.47,14.94-14.4,31.76-26.87,47.9-40,9.83-8,20-15.68,29.92-23.55Q-10.07-57.07,8.25-71.75c2.6-2.09,4.63-5,7.36-6.81,9.55-6.52,19.17-13,29-19,7.37-4.54,15.12-8.48,22.75-12.61,5.38-2.9,10.82-5.67,16.24-8.5Z" transform="translate(230.72 138.15)"/><path class="cls-4" d="M-230,795.15c37.86,2.25,75.75,4,113.54,7,13.11,1.05,26.16,4.64,38.89,8.26,12.05,3.43,23.66,8.38,35.44,12.72,17.94,6.62,34.39,16.16,50.47,26.28C17,854.83,25,861.15,33.14,867.22c13,9.67,25.85,19.47,38.77,29.22,15.46,11.66,30.7,23.61,46.43,34.89,16.41,11.77,33.26,22.93,50,34.27,4.45,3,9.11,5.76,13.67,8.62H153.4a32.1,32.1,0,0,0-3.62-3.3c-5.67-3.78-11.52-7.31-17.12-11.19-12.85-8.9-25.69-17.81-38.35-27-8.46-6.13-16.56-12.78-24.88-19.11-13.21-10.06-26.3-20.28-39.75-30C16,873.78,2.28,864-11.93,855c-8.92-5.64-18.63-10.12-28.25-14.55a281.14,281.14,0,0,0-41-15.71,273.65,273.65,0,0,0-60.27-10.24c-29.49-1.57-59-2.84-88.51-4.25Z" transform="translate(230.72 138.15)"/><path class="cls-4" d="M594.77-118.7h24.38a90.58,90.58,0,0,0,6.23,6.6c7.56,6.59,15.56,12.71,22.83,19.6S662.05-78,668.94-70.74c7.76,8.2,15.64,16.29,23.28,24.6,8.2,8.92,15.89,18.34,24.35,27,8.73,8.92,15.38,19.15,21.3,30,3.21,5.88,6,12,9.93,17.45C758.39,43,769.39,57.44,780.32,71.92c5.79,7.66,12.09,15,17.63,22.78q17.79,25.13,35,50.65c4.86,7.17,9.1,14.74,13.8,22,2.42,3.75,5.17,7.28,7.85,10.85s5.57,7.19,8.37,10.78v25.22a19.22,19.22,0,0,1-2.35-2.24c-3.52-4.67-7-9.41-10.45-14.09-3.27-4.36-6.85-8.51-9.84-13-7.28-11.06-14.07-22.45-21.46-33.43-10.66-15.83-21.47-31.58-32.62-47.07C776.94,91.43,767,79,757.45,66.25c-7-9.35-14.05-18.73-20.89-28.23-2.43-3.39-4.32-7.17-6.48-10.75-5.7-9.44-10.32-19.8-17.35-28.12-14.16-16.72-29.58-32.39-44.61-48.37-10-10.65-20-21.37-30.46-31.54-9.72-9.42-20.07-18.2-30.2-27.19C603.32-111.63,599-115.12,594.77-118.7Z" transform="translate(230.72 138.15)"/><path class="cls-4" d="M-230,738c8.11-6.62,16.16-13.33,24.35-19.85,7.63-6.07,15.57-11.76,23.09-18a124.29,124.29,0,0,0,13.34-12.72c8.18-9.1,16.52-18.15,23.84-27.93s13.89-20.53,20.4-31.07c8.59-13.91,17.16-27.84,25.09-42.13,7-12.54,13-25.6,19.46-38.41,2.52-5,5.46-9.79,7.68-14.91,6.54-15.1,12.71-30.35,19.21-45.46,5.41-12.56,11.14-25,16.63-37.5,3.41-7.79,6.52-15.72,10-23.47,2.52-5.59,5.41-11,8.21-16.48A7.76,7.76,0,0,1-8.15,407,7.84,7.84,0,0,1-5.1,417.86C-7.4,422-10,426-12,430.3c-3.68,7.81-7,15.8-10.52,23.68-2.4,5.36-5.09,10.59-7.36,16-5.12,12.23-10.24,24.48-15,36.84a347.34,347.34,0,0,1-18,40.06c-6.9,12.74-12.83,26-19.41,38.92-3,5.85-6.46,11.45-9.79,17.12-7.43,12.62-14.52,25.46-22.48,37.75-8.48,13.11-17.29,26.08-26.92,38.35a246.25,246.25,0,0,1-24.78,26.5c-9,8.52-18.78,16.25-28.43,24-8.13,6.57-16.61,12.68-24.84,19.12-2.18,1.71-3.88,4-6,5.79-1.19,1-2.87,1.36-4.33,2Z" transform="translate(230.72 138.15)"/><path class="cls-4" d="M-230,639.62a10.64,10.64,0,0,0,2.8-1.75c6.86-8.24,13.76-16.46,20.39-24.88A223.08,223.08,0,0,0-193,594c6.54-10.38,12.52-21.11,18.73-31.69,2.05-3.49,4.28-6.89,6.15-10.48,7.31-14,14.77-27.88,21.66-42.06,6.52-13.42,12.26-27.21,18.58-40.73,3.61-7.72,7.72-15.2,11.57-22.81,5.73-11.33,11.25-22.79,17.21-34,5-9.45,10.23-18.87,16-27.89,8.57-13.4,17.41-26.64,26.71-39.53,5.85-8.11,12.7-15.5,19.22-23.12,3.88-4.54,7.89-9,12-13.29,3.48-3.62,7.62-3.79,10.77-.82,3.33,3.14,3.08,7-.41,11.09-10,11.81-20.58,23.24-29.79,35.66-11,14.87-21.27,30.36-31.06,46.07-7.51,12.06-14,24.79-20.53,37.41-5.4,10.4-10.3,21.07-15.34,31.65-5.28,11.09-10.42,22.25-15.7,33.34-4.56,9.57-9.08,19.16-13.86,28.62-5.73,11.32-11.5,22.62-17.62,33.74-6.45,11.72-12.78,23.57-20.15,34.72A377.77,377.77,0,0,1-228,660.1a13.2,13.2,0,0,1-2,1.38Z" transform="translate(230.72 138.15)"/><path class="cls-4" d="M137.42,974.22H108c-.43-.51-.75-1.18-1.29-1.5-4.89-2.94-10-5.53-14.69-8.78C82,957,72.25,949.79,62.46,942.58c-2.8-2.06-5.17-4.69-8-6.76-8.62-6.39-17.41-12.56-26-19-12.21-9.1-24.15-18.58-36.54-27.44-9.17-6.56-18.68-12.71-28.39-18.45-10.92-6.44-22-12.73-33.43-18.14-19.92-9.42-41.54-12.19-63.19-13.91-17.72-1.4-35.51-1.89-53.27-2.66-14.54-.63-29.08-1.06-43.63-1.59V819.53c36.75,2,73.5,3.63,110.22,5.92,29.43,1.85,56.46,11.57,81.62,26.72,2.27,1.37,4.41,2.93,6.64,4.36,9.48,6.09,19.1,12,28.43,18.31,5.88,4,11.25,8.7,17,12.86,9.82,7.1,19.94,13.78,29.59,21.09,11,8.34,21.46,17.48,32.58,25.69,8.95,6.59,18.49,12.4,27.88,18.38,9.88,6.29,19.89,12.35,29.82,18.55A44.07,44.07,0,0,1,137.42,974.22Z" transform="translate(230.72 138.15)"/><path class="cls-4" d="M26.45-118.7H54.19a43.69,43.69,0,0,1-3.49,2.77C38-107.76,25.09-100,12.75-91.38,1-83.14-10.14-74-21.58-65.24c-9,6.84-18.13,13.44-26.93,20.49-7.28,5.83-14.26,12-21.2,18.27-18.09,16.22-36.25,32.37-54,48.9-8.86,8.24-17.18,17.08-25.38,26-8.72,9.46-17.31,19.07-25.37,29.09-7.42,9.22-14.05,19.08-21,28.66q-13.9,19.1-27.82,38.17c-2.13,2.9-4.41,5.68-6.62,8.52V126.79c3.37-4.58,6.71-9.17,10.09-13.74,6.31-8.5,12.51-17.09,19-25.46,9.3-12,18.43-24.18,28.34-35.67C-162.47,40.21-151.76,29-140.89,18c8.4-8.51,17.45-16.39,26.24-24.51,8.5-7.84,16.92-15.77,25.6-23.4C-81-37-72.68-43.77-64.41-50.6c11.2-9.23,22.3-18.61,33.77-27.49,8.46-6.55,17.46-12.41,26.21-18.59q11.25-7.95,22.48-15.95C20.86-114.63,23.65-116.68,26.45-118.7Z" transform="translate(230.72 138.15)"/><path class="cls-4" d="M53.35,974.22c-5.48-4-11.3-7.68-16.38-12.16C28.1,954.23,19.74,945.82,11,937.81c-2.13-2-4.91-3.19-7.24-4.95-18.4-13.88-36.3-28.47-55.3-41.47-12.36-8.46-25.87-15.66-41.07-18.32-20-3.5-39.9-7.17-59.95-10.11a461.4,461.4,0,0,0-73.27-4.5c-1.39,0-2.77-.17-4.16-.26V843.91c5.46-.12,10.92-.4,16.37-.34,37.79.38,75,5.79,112.17,12.18,17.84,3.07,34.23,9.46,49.89,17.85,8.91,4.78,17,11.15,25.19,17.22,10,7.41,19.57,15.29,29.4,22.87,6,4.61,12.35,8.71,18.08,13.59,10.07,8.56,19.6,17.78,29.73,26.28,5.32,4.47,11.35,8.14,17.22,11.93,4.78,3.09,9.79,5.83,14.7,8.73Z" transform="translate(230.72 138.15)"/><path class="cls-4" d="M863,129.31c-2.74-3.83-5.44-7.68-8.21-11.47q-4.44-6.09-9-12.09C835.55,92.13,825.37,78.46,815,64.91c-7.85-10.3-15.54-20.77-24-30.57C783.88,26,775.77,18.5,768,10.71q-13-13-26.13-25.86c-6.88-6.7-14.2-13-20.8-19.93-8.16-8.58-15.62-17.81-23.68-26.5-6.91-7.44-14-14.73-21.43-21.69-9.24-8.69-18.84-17-28.33-25.41-3.83-3.41-7.77-6.69-11.65-10h22.69c1.24,1.13,2.42,2.33,3.71,3.38a413.65,413.65,0,0,1,50.76,49.25c7.31,8.43,14.91,16.65,22.81,24.53C753.26-24.27,771-7.45,788.29,9.87A328.81,328.81,0,0,1,825.4,54c8,11.42,17,22.08,25.51,33.12,4.09,5.31,8,10.72,12.05,16.09Z" transform="translate(230.72 138.15)"/><path class="cls-4" d="M-230,111.65V87.27c10.07-12.33,20.11-24.69,30.24-37,2.49-3,5.43-5.64,8-8.61,7.5-8.8,14.84-17.73,22.38-26.5,2.81-3.27,6.11-6.12,9-9.35,6.47-7.29,12.55-14.94,19.27-22s14-13.51,21.13-20.19c9-8.5,18-17.11,27.15-25.41C-84.79-69-76.39-75.9-68.17-83c8.44-7.27,16.77-14.66,25.28-21.85,5.62-4.76,11.47-9.25,17.22-13.85H-.45C-3-116.53-5.36-114.22-8-112.2c-9.48,7.27-19.36,14.06-28.49,21.75-17.5,14.73-34.72,29.8-51.8,45C-97.84-36.9-107-27.89-116.11-18.91c-8.74,8.57-17.43,17.21-25.8,26.15-6.65,7.1-12.76,14.71-19.15,22-14.84,17-29.92,33.87-44.5,51.11C-214.09,90.49-221.86,101.21-230,111.65Z" transform="translate(230.72 138.15)"/><path class="cls-4" d="M863,662.32c-2.9-4.9-5.73-9.84-8.72-14.68-2.34-3.8-5-7.42-7.31-11.23C840.1,625.18,833,614.1,826.67,602.6c-10.57-19.17-21.21-38.34-30.66-58.06-4-8.41-5.51-18.14-7.47-27.41-4.3-20.38-7.47-41-12.48-61.23-3.07-12.37-8.58-24.15-13.21-36.12-2.26-5.84-5.17-11.43-7.49-17.26-3.81-9.6-7.41-19.29-11-29-1.19-3.18.56-7.73,3.29-9.08a7.7,7.7,0,0,1,9.65,2.72,55.57,55.57,0,0,1,3.85,7.91c4.68,11.34,9.13,22.79,13.94,34.08,7.72,18.14,15,36.3,18.24,56,3.14,19.31,7.71,38.39,11.72,57.55,2.93,14,9.1,26.54,16.33,38.78,8.29,14,15.73,28.55,23.78,42.72,5,8.85,10.47,17.45,15.76,26.14a22.43,22.43,0,0,0,2.06,2.52Z" transform="translate(230.72 138.15)"/><path class="cls-4" d="M-230,316.79c2.14-3.38,4.46-6.65,6.38-10.15,5.32-9.64,10.25-19.5,15.74-29,8.06-14.05,16.28-28,24.8-41.8,7.2-11.62,14.91-22.92,22.42-34.35,6-9.09,11.55-18.49,18.08-27.17,8.81-11.72,18.24-23,27.62-34.26,7.39-8.9,14.82-17.79,22.77-26.17,6.43-6.77,13.57-12.88,20.57-19.07,3.63-3.21,7.3-3.08,10.17-.23a8,8,0,0,1,.34,10.72c-1.93,2.36-4.32,4.33-6.49,6.5-7.7,7.68-15.56,15.21-23,23.11-6.6,7-13,14.16-19,21.64-7,8.69-13.41,17.81-20.07,26.76-4.09,5.49-8.4,10.83-12.17,16.53-6.45,9.77-12.48,19.82-18.82,29.66-3.93,6.11-8.28,12-12.11,18.13-6.26,10.07-12.25,20.3-18.33,30.48-2.29,3.84-4.63,7.66-6.75,11.6-5.74,10.7-11.25,21.52-17.09,32.16-4.82,8.78-10,17.38-15,26.05Z" transform="translate(230.72 138.15)"/><path class="cls-4" d="M594.77-118.7c4.24,3.58,8.55,7.07,12.69,10.75,10.13,9,20.48,17.77,30.2,27.19,10.48,10.17,20.45,20.89,30.46,31.54,15,16,30.45,31.65,44.61,48.37,7,8.32,11.65,18.68,17.35,28.12,2.16,3.58,4,7.36,6.48,10.75,6.84,9.5,13.85,18.88,20.89,28.23C767,79,776.94,91.43,786.24,104.34c11.15,15.49,22,31.24,32.62,47.07,7.39,11,14.18,22.37,21.46,33.43,3,4.54,6.57,8.69,9.84,13,3.5,4.68,6.93,9.42,10.45,14.09a19.22,19.22,0,0,0,2.35,2.24v13.45c-2.48-3.1-5.07-6.13-7.42-9.33-4.47-6.08-8.94-12.16-13.15-18.42-6.14-9.15-12-18.49-18.08-27.67-3.94-5.93-8-11.75-12.17-17.55q-9.82-13.77-19.83-27.42c-2-2.68-4.37-5-6.57-7.56-12.8-14.62-26-28.91-38.25-44-6.7-8.26-12-17.73-17.49-26.89a281.61,281.61,0,0,1-14-25.27c-6.62-14-15.74-26.34-25.53-38.13C684.2-22.13,677-29,670-35.9c-8.44-8.31-16.9-16.62-25.76-24.45-11.62-10.27-23.59-20.12-35.5-30q-10.74-9-21.79-17.55c-4.82-3.76-9.9-7.19-14.87-10.76Z" transform="translate(230.72 138.15)"/><path class="cls-4" d="M863,808.6C853.9,803.1,844.54,798,835.87,792c-10.29-7.17-19.63-15.71-30-22.71-12.57-8.46-25.72-16.1-38.79-23.81C746,733,722.77,725.61,700,717.15c-19.76-7.34-39.75-14.06-59.57-21.28-5.1-1.85-9.93-4.46-14.84-6.83-4.38-2.11-5.79-6.1-3.89-10.51,1.47-3.4,6-4.89,10.17-3.08,4.48,1.95,8.72,4.5,13.3,6.16,21.12,7.68,42.34,15.06,63.46,22.72,9.73,3.53,19.16,7.87,29,11.13,17.22,5.72,33,14.34,48.64,23.26,18.21,10.4,34.9,23.12,51.63,35.74,8.1,6.11,16.7,11.57,25.07,17.33Z" transform="translate(230.72 138.15)"/><path class="cls-4" d="M863,62.05v22.7a4.92,4.92,0,0,1-1.41-.79q-20-23.17-39.88-46.39-13.23-15.4-26.48-30.81C788.67-.84,782.3-8.57,775.61-16c-6.15-6.83-12.85-13.17-18.91-20.08C741.67-53.19,727-70.55,712-87.66c-9.2-10.49-18.7-20.71-28.06-31h21c8,9.27,16.13,18.48,24.05,27.84,6.92,8.18,13.46,16.68,20.49,24.77,6,6.93,12.59,13.39,18.76,20.2q12.91,14.24,25.59,28.7,17,19.34,33.79,38.8c4,4.64,7.83,9.47,11.79,14.17q10.35,12.28,20.8,24.51A11.41,11.41,0,0,0,863,62.05Z" transform="translate(230.72 138.15)"/><path class="cls-4" d="M-62.66-118.7h24.38c-5.44,4.51-10.94,9-16.3,13.55Q-73.82-88.65-93-72c-2.62,2.28-4.9,5-7.47,7.29-7.91,7.24-16.06,14.22-23.79,21.63C-132.35-35.29-140-27-148-19.08c-7.1,7-14.64,13.63-21.47,20.9-7.91,8.42-15.28,17.34-22.82,26.1q-13.12,15.24-26.15,30.59c-3.85,4.52-7.65,9.08-11.48,13.63V47.76a7.42,7.42,0,0,0,1.65-1.1c5.72-6.65,11.36-13.39,17.13-20C-202,16.16-192.8,5.73-183.58-4.72c3.41-3.87,6.67-7.92,10.34-11.54,6.33-6.23,13-12.09,19.41-18.29,9.2-8.94,18.11-18.19,27.41-27,8.18-7.77,16.72-15.15,25.12-22.7q13.55-12.16,27.1-24.32C-70.39-112-66.51-115.34-62.66-118.7Z" transform="translate(230.72 138.15)"/><path class="cls-4" d="M-230.72,864c3.62,1.38,7.34,2.57,10.86,4.17,15,6.79,30,13.57,44.89,20.59,20.56,9.69,40.94,19.73,61.55,29.3,5.52,2.57,11.7,3.69,17.35,6,20.92,8.58,41.73,17.42,62.6,26.09,6.31,2.62,12.72,5,19,7.55a38.75,38.75,0,0,1,4,2.13H-49.13a50.38,50.38,0,0,0-5.74-3.27C-68.56,951-82.25,945.36-96,940c-5.44-2.12-11.32-3.18-16.63-5.57-16.89-7.61-33.62-15.62-50.41-23.48q-28.41-13.3-56.84-26.59c-3.52-1.63-7.2-2.91-10.81-4.36Z" transform="translate(230.72 138.15)"/><path class="cls-4" d="M505.66-118.7c4.93,2.84,9.89,5.64,14.77,8.56,2.63,1.57,5.12,3.38,7.7,5C540.56-97,552.86-88.73,565.48-81c11.87,7.31,24.25,13.81,36.09,21.17,10.66,6.63,21.33,13.39,31.2,21.11,10.94,8.56,21.06,18.18,31.34,27.54,2,1.81,3.34,4.47,4.57,6.94,1.53,3.07.21,7.87-2.55,9.3a7.38,7.38,0,0,1-9.25-1.38c-2.15-2.2-3.75-5-6-7-10.7-9.4-21-19.36-32.52-27.71-12.16-8.84-25.49-16.09-38.3-24s-25.4-15.68-38-23.6c-6.37-4-12.47-8.44-19-12.22-12.16-7.1-24.54-13.8-36.75-20.79-3.75-2.15-7.26-4.72-10.88-7.09Z" transform="translate(230.72 138.15)"/><path class="cls-4" d="M713.31-118.7h21c5.77,5.79,11.46,11.66,17.33,17.35,9.19,8.92,18.81,17.42,27.66,26.66,9.15,9.56,17.87,19.56,26.26,29.79,8.66,10.54,16.57,21.69,25,32.38C841.27,1,852.16,14.22,863,27.58V49.44c-3.57-3.88-7.24-7.68-10.68-11.67-7.54-8.76-15.18-17.46-22.37-26.5-7.37-9.26-14-19.09-21.42-28.33-11.58-14.46-23.23-28.88-35.42-42.8-6.85-7.82-14.87-14.6-22.34-21.87-9-8.74-18-17.46-27-26.25C720.22-111.48,716.8-115.12,713.31-118.7Z" transform="translate(230.72 138.15)"/><path class="cls-4" d="M229.9-118.7c-8.3,1.75-16.59,3.6-24.92,5.22a275.83,275.83,0,0,0-54.85,16.75c-18.38,7.75-36.89,15.22-55,23.51C76.57-64.74,58.3-55.63,40.16-46.33,34.38-43.37,29.29-39,24-35.12,20.09-32.19,14.49-32,12.32-35c-2.75-3.85-1.05-10.66,3.06-13.24,5.67-3.57,10.91-7.93,16.86-10.92,17.86-9,35.91-17.56,54-26.05,17.46-8.18,35-16.25,52.65-23.94,7.27-3.16,15-5.19,22.56-7.78a40.14,40.14,0,0,0,3.71-1.72Z" transform="translate(230.72 138.15)"/><path class="cls-4" d="M-99.66-118.7H-77c-2.27,2.25-4.41,4.65-6.83,6.72-7.83,6.69-15.84,13.15-23.62,19.9-4.1,3.56-7.77,7.61-11.78,11.27-7.61,7-15.46,13.64-22.94,20.72s-14.37,14.35-21.64,21.46c-8.46,8.27-17.22,16.25-25.5,24.71C-197.34-5.67-205,3-212.77,11.55c-3.84,4.22-7.45,8.63-11.28,12.85-1.84,2-3.94,3.81-5.92,5.7V7.4c3.16-3.33,6.23-6.75,9.48-10q33.66-33.69,67.41-67.3c8.52-8.45,17.16-16.81,26-24.91S-108.8-110.75-99.66-118.7Z" transform="translate(230.72 138.15)"/><path class="cls-4" d="M863,175.55Q851.24,158.27,839.55,141c-3.83-5.67-7.57-11.4-11.37-17.09-6.35-9.5-12.57-19.09-19.13-28.44-4.48-6.39-9.45-12.43-14.19-18.63-2.28-3-4.38-6.11-6.8-9-8.1-9.58-16.36-19-24.44-28.63-3.67-4.36-2.85-10,1.49-12.23,3.78-1.94,8.17-.44,11.43,3.54,4.41,5.39,9.14,10.53,13.52,16,6.46,8,12.71,16.22,19.09,24.31,2,2.51,4.29,4.8,6.12,7.41,7.87,11.2,15.81,22.36,23.37,33.77,8,12.08,15.62,24.43,23.43,36.66a4.71,4.71,0,0,0,.89.83Z" transform="translate(230.72 138.15)"/><path class="cls-4" d="M863-11.09V13.29C859.68,9,856.5,4.6,853.1.4c-5.79-7.14-11.72-14.16-17.59-21.23-10.68-12.88-21.2-25.89-32.08-38.61-7.86-9.2-16.21-18-24.28-27-2.32-2.6-4.26-5.53-6.64-8.06-7.61-8.13-15.36-16.13-23-24.18h21c.78,1,1.53,2,2.36,2.9,17.82,20.29,35.73,40.52,53.47,60.9,8.77,10.07,17.27,20.39,25.86,30.63C855.81-19.92,859.36-15.49,863-11.09Z" transform="translate(230.72 138.15)"/><path class="cls-4" d="M178.21,812.69h-27.9a28.8,28.8,0,0,0-3.5-1.88c-4.43-1.66-8.93-3.13-13.35-4.81-10.71-4.1-21.43-8.21-32.09-12.44-8.51-3.39-17-7-25.42-10.47-2.74-1.14-5.45-2.35-8.18-3.53V767.94c3,1.37,5.9,2.87,8.94,4.11,12,4.87,23.94,9.72,36,14.45,10.41,4.11,20.91,8,31.33,12.09,6.29,2.48,12.48,5.19,18.72,7.77C167.88,808.49,173.05,810.58,178.21,812.69Z" transform="translate(230.72 138.15)"/><path class="cls-4" d="M-230,30.1c2-1.89,4.08-3.67,5.92-5.7,3.83-4.22,7.44-8.63,11.28-12.85C-205,3-197.34-5.67-189.27-13.92c8.28-8.46,17-16.44,25.5-24.71,7.27-7.11,14.26-14.48,21.64-21.46s15.33-13.76,22.94-20.72c4-3.66,7.68-7.71,11.78-11.27,7.78-6.75,15.79-13.21,23.62-19.9,2.42-2.07,4.56-4.47,6.83-6.72h14.3c-3.85,3.36-7.73,6.69-11.54,10.1q-13.58,12.13-27.1,24.32c-8.4,7.55-16.94,14.93-25.12,22.7-9.3,8.84-18.21,18.09-27.41,27-6.38,6.2-13.08,12.06-19.41,18.29-3.67,3.62-6.93,7.67-10.34,11.54C-192.8,5.73-202,16.16-211.19,26.66c-5.77,6.61-11.41,13.35-17.13,20a7.42,7.42,0,0,1-1.65,1.1Z" transform="translate(230.72 138.15)"/><path class="cls-4" d="M-140-118.7h23.54c-.93,1-1.78,2.09-2.79,3-8.87,7.82-17.88,15.49-26.63,23.45C-175-65.81-202.57-37.94-227.79-7.75A12.72,12.72,0,0,1-230-6v-22.7c2.21-2.13,4.54-4.14,6.6-6.41,6.82-7.54,13.3-15.41,20.37-22.7,8.55-8.8,17.53-17.18,26.38-25.69,9-8.7,18.14-17.34,27.2-26C-146.26-112.59-143.14-115.65-140-118.7Z" transform="translate(230.72 138.15)"/><path class="cls-4" d="M-71,959.85c-7.47-3.05-14.94-6.08-22.4-9.16-9-3.73-18-7.65-27.08-11.23-15.07-5.93-30.26-11.55-45.32-17.49q-26.07-10.28-52-20.91c-4.39-1.78-8.62-3.95-12.92-5.95V880c3.61,1.45,7.29,2.73,10.81,4.36q28.46,13.23,56.84,26.59c16.79,7.86,33.52,15.87,50.41,23.48,5.31,2.39,11.19,3.45,16.63,5.57,13.78,5.38,27.47,11,41.16,16.6a50.38,50.38,0,0,1,5.74,3.27Z" transform="translate(230.72 138.15)"/><path class="cls-4" d="M863,610.19c-2.77-4-5.62-7.86-8.3-11.88-4.18-6.27-9-12.27-12.22-19-6.89-14.31-13.25-28.89-19.25-43.6-5.28-12.94-9.79-26.18-14.57-39.32a20.38,20.38,0,0,1-1.18-5.29c-.43-4.87,1-7.36,4.53-8.2,4.9-1.18,8.22.43,9.9,5.16,4.26,12,8.27,24,12.62,36,5.48,15.08,10.68,30.3,19.12,44.11q4.65,7.59,9.35,15.16Z" transform="translate(230.72 138.15)"/><path class="cls-4" d="M-230-6a12.72,12.72,0,0,0,2.18-1.7c25.22-30.19,52.83-58.06,81.9-84.51,8.75-8,17.76-15.63,26.63-23.45,1-.9,1.86-2,2.79-3h16.81c-9.14,8-18.44,15.73-27.39,23.89s-17.51,16.46-26,24.91q-33.81,33.56-67.41,67.3c-3.25,3.25-6.32,6.67-9.48,10Z" transform="translate(230.72 138.15)"/><path class="cls-4" d="M777.2-118.7h21c2.13,2.38,4.19,4.83,6.39,7.14,6,6.34,12.32,12.45,18.15,19,8,8.91,15.61,18.13,23.45,27.16,2.65,3,5.53,5.9,8.2,8.93,2.91,3.31,5.7,6.73,8.55,10.11v25.22c-8.51-10.68-16.75-21.61-25.61-32-11-12.93-22.44-25.53-33.92-38C794.88-100.56,786-109.56,777.2-118.7Z" transform="translate(230.72 138.15)"/><path class="cls-4" d="M721.68,812.69c4-.73,7.93-1.48,11.9-2.2l41-7.44c12.17-2.2,24.34-4.37,36.49-6.62,2.46-.45,4.86-1.22,7.29-1.81,1.68-.4,3.36-.74,5-1.11V804c-7.64,1.58-15.27,3.17-22.92,4.72q-10,2-20.09,4Z" transform="translate(230.72 138.15)"/><path class="cls-4" d="M-230-44.72v-22.7c4.75-5,9.52-10,14.23-15.11,3.8-4.08,7.33-8.45,11.35-12.3,8.44-8.09,17.12-15.93,25.71-23.87h21.86c-3.74,3.47-7.55,6.88-11.21,10.42-9.21,8.91-18.47,17.75-27.49,26.85-8.43,8.49-16.6,17.24-24.82,25.94C-223.64-52-226.76-48.32-230-44.72Z" transform="translate(230.72 138.15)"/><path class="cls-4" d="M-230-44.72c3.21-3.6,6.33-7.27,9.63-10.77,8.22-8.7,16.39-17.45,24.82-25.94,9-9.1,18.28-17.94,27.49-26.85,3.66-3.54,7.47-7,11.21-10.42H-140c-3.13,3-6.25,6.11-9.41,9.14-9.06,8.67-18.16,17.31-27.2,26C-185.47-75-194.45-66.66-203-57.86c-7.07,7.29-13.55,15.16-20.37,22.7-2.06,2.27-4.39,4.28-6.6,6.41Z" transform="translate(230.72 138.15)"/><path class="cls-4" d="M67.77,779.56c2.73,1.18,5.44,2.39,8.18,3.53,8.46,3.51,16.91,7.08,25.42,10.47,10.66,4.23,21.38,8.34,32.09,12.44,4.42,1.68,8.92,3.15,13.35,4.81a28.8,28.8,0,0,1,3.5,1.88h-18.6c-2.3-1-4.55-2.08-6.9-2.92-7.34-2.64-14.73-5.13-22.06-7.8-4.07-1.48-8.06-3.18-12.07-4.83q-11.46-4.7-22.91-9.44Z" transform="translate(230.72 138.15)"/><path class="cls-4" d="M67.77,787.7q11.46,4.72,22.91,9.44c4,1.65,8,3.35,12.07,4.83,7.33,2.67,14.72,5.16,22.06,7.8,2.35.84,4.6,1.94,6.9,2.92h-30.8a28,28,0,0,0-2.52-1.24c-6.12-2.35-12.27-4.6-18.36-7-4.12-1.62-8.17-3.42-12.26-5.14Z" transform="translate(230.72 138.15)"/><path class="cls-4" d="M863-78.35V-54c-1-1-2-2-2.83-3-8.38-10.58-16.66-21.22-25.1-31.75-3.31-4.12-7-8-10.41-12-3.14-3.69-6.22-7.43-9.28-11.18-1.83-2.24-3.57-4.54-5.35-6.81h19.34c3.1,3.4,6.42,6.64,9.27,10.23,6.23,7.85,12.17,15.91,18.35,23.79A85.28,85.28,0,0,0,863-78.35Z" transform="translate(230.72 138.15)"/><path class="cls-4" d="M777.2-118.7c8.76,9.14,17.68,18.14,26.23,27.48,11.48,12.52,22.9,25.12,33.92,38.05,8.86,10.38,17.1,21.31,25.61,32v10.09c-3.6-4.4-7.15-8.83-10.79-13.18-8.59-10.24-17.09-20.56-25.86-30.63-17.74-20.38-35.65-40.61-53.47-60.9-.83-.94-1.58-1.93-2.36-2.9Z" transform="translate(230.72 138.15)"/><path class="cls-4" d="M-230,468.11c2.41-4.37,4.95-8.67,7.2-13.12,2.71-5.36,5.06-10.89,7.76-16.26,2.13-4.23,6.69-5.51,11.06-3.37,3.58,1.76,4.57,5.71,2.37,10.11q-9.63,19.29-19.37,38.52c-2.9,5.69-6,11.28-9,16.91Z" transform="translate(230.72 138.15)"/><path class="cls-4" d="M837.32,388.22c-2.32-3.6-5-7-6.88-10.83-4.43-8.7-8.69-17.5-12.67-26.42a172.6,172.6,0,0,1-6-16.49c-1.09-3.3,1.39-8.08,4.33-9.12a7.82,7.82,0,0,1,9.68,4.56c2.56,6.18,4.76,12.52,7.34,18.7a76.19,76.19,0,0,0,4.22,7.65Z" transform="translate(230.72 138.15)"/><path class="cls-4" d="M-230-82.55v-21l16.82-15.13h22.7a31.53,31.53,0,0,1-3.23,3.75c-3.9,3.35-8,6.42-11.87,9.86C-213.77-97.66-221.84-90.07-230-82.55Z" transform="translate(230.72 138.15)"/><path class="cls-4" d="M-230-82.55c8.13-7.52,16.2-15.11,24.42-22.54,3.82-3.44,8-6.51,11.87-9.86a31.53,31.53,0,0,0,3.23-3.75h11.77c-8.59,7.94-17.27,15.78-25.71,23.87-4,3.85-7.55,8.22-11.35,12.3-4.71,5.07-9.48,10.08-14.23,15.11Z" transform="translate(230.72 138.15)"/><path class="cls-4" d="M67.77,799.32c4.09,1.72,8.14,3.52,12.26,5.14,6.09,2.39,12.24,4.64,18.36,7a28,28,0,0,1,2.52,1.24H79.4L67.77,808Z" transform="translate(230.72 138.15)"/><path class="cls-4" d="M780.39,812.69q10.05-2,20.09-4c7.65-1.55,15.28-3.14,22.92-4.72v8.72Z" transform="translate(230.72 138.15)"/><path class="cls-4" d="M813.78-123.77h17.65l5.89,7.56v24.38Z" transform="translate(230.72 138.15)"/><path class="cls-4" d="M-213.15-118.7-230-103.57V-118.7Z" transform="translate(230.72 138.15)"/><path class="cls-4" d="M67.77,808l11.63,4.65H67.77Z" transform="translate(230.72 138.15)"/><path class="cls-4" d="M836.56-130.58l-5.89-7.57h5.89Z" transform="translate(230.72 138.15)"/><path class="cls-4" d="M263.9,327.74a159.62,159.62,0,0,1,35.72-35c14.56-10.43,30.35-18.34,46.64-25.35,8-3.46,16.61-5.8,25.05-8.26,28.2-8.2,56.52-12,85.64-4.06a230.49,230.49,0,0,1,61.33,26.55,199.4,199.4,0,0,1,17.24,12.64c7.34,5.76,15,11.29,21.6,17.78,9,8.74,17.18,18.29,25.67,27.53,2,2.15,4.34,4.18,5.58,6.72,6.21,12.64,12.43,25.29,18,38.21,5.93,13.72,11.12,27.76,16.67,41.65,8.18,20.5,16.3,41,24.6,61.48,6.94,17.08,13.86,34.17,21.27,51.05,5.16,11.75,10.89,23.28,16.81,34.67,5.4,10.4,11.13,20.66,17.22,30.67,6.46,10.63,13.47,20.92,20.33,31.3,2.92,4.41,5.89,8.8,9.15,12.95A39.54,39.54,0,0,0,740,656c3.25,2.37,6.95,1,8.85-1.94a9.68,9.68,0,0,0,.62-7.67c-1.18-3.15-3.72-5.81-5.77-8.6-4.06-5.52-8.52-10.77-12.2-16.53-6.16-9.63-12-19.46-17.68-29.4-6.7-11.76-13.42-23.53-19.45-35.64-7.72-15.5-15.17-31.15-22-47.07-7.51-17.59-14.14-35.54-21.13-53.35-6.07-15.48-12-31-18.18-46.46-5.69-14.28-11.36-28.56-17.47-42.66-3.66-8.44-7.31-17.1-12.42-24.66-12.18-18-27.21-33.58-44-47.36-8.41-6.88-16.55-14.16-25.48-20.29a282.69,282.69,0,0,0-29.84-17.64,188.2,188.2,0,0,0-23.94-9.87C464.81,241.5,449.55,237,433.44,236c-29.83-1.82-58.26,5.09-85.88,15-14.61,5.23-28.42,12.94-42.16,20.35-15.2,8.21-28.5,19.15-40.54,31.55a67.54,67.54,0,0,0-5.73,7.18c-4.22,5.72-9.19,11.08-12.38,17.34Z" transform="translate(230.72 138.15)"/><path class="cls-4" d="M249,330c-3.85,5.19,8.49,9.2,6,15.26-3.57,8.76-6.76,17.69-9.64,26.7-3.83,12-7.91,24-10.62,36.22-7.4,33.53-11,67.54-7.15,101.79,2.31,20.25,6.64,40.27,10.29,60.35C240.66,585.59,243.13,601,247,616c3.43,13.22,8.48,26,13.09,38.92,3.19,8.93,6.58,17.83,10.34,26.54,7.7,17.8,15.4,35.62,23.75,53.12,3.22,6.74,7.84,12.92,12.48,18.85,12.81,16.36,26,32.45,39,48.65,1.84,2.3,3.71,4.57,5.49,6.91a7.15,7.15,0,0,1-1.49,10.34c-3.59,2.68-7.76,1.77-10.54-1.78-3.78-4.84-8-9.36-11.88-14.11-11-13.36-22.54-26.3-32.61-40.31-8.92-12.42-17-25.55-22.87-39.87-7.13-17.46-14.56-34.8-21.71-52.24-7.65-18.64-14.83-37.49-19-57.23-4.7-22.17-8.49-44.53-12.94-66.76a328.54,328.54,0,0,1-6.84-66.91c.77-27,3.71-58.18,12.17-88.61,6.11-22,8.25-42.73,18.63-63.1Z" transform="translate(230.72 138.15)"/><path class="cls-4" d="M364.45,436.37c-.39-11.62,2.6-26.21,8.23-40,5.07-12.41,13.52-22.78,24-31.29,11.24-9.09,23.14-17.35,36.82-22.1a80.26,80.26,0,0,1,38.9-3.43c14.67,2.23,27.32,8.83,39.48,16.65,8.06,5.19,15.94,10.71,23.62,16.44,3.53,2.63,6.38,6.16,9.57,9.24,11.68,11.28,19.67,25.31,28.35,38.76,7,10.88,12.22,23.05,19.92,33.39,7.44,10,17.12,18.34,25.68,27.53,6.81,7.3,14.38,13.86,18.75,23.33,3.78,8.22,8.87,15.84,13.45,23.69a8,8,0,0,1-1.8,9.83,7.45,7.45,0,0,1-10.57-1,91,91,0,0,1-7-11.36c-3.78-6.86-6.88-14.14-11.19-20.62-3-4.56-7.68-8-11.48-12.09-11.23-12-24.14-22.51-32.77-36.73-6.66-11-12.46-22.45-19-33.49-3.64-6.11-7.95-11.84-12.15-17.6a107.17,107.17,0,0,0-9.91-12.39c-8.14-8.24-16.53-16.24-26.92-21.78-4.68-2.5-9-5.68-13.7-8.14-16.5-8.65-33.53-12.75-52.16-7.05-9.67,2.95-18.11,7.66-26.33,13.35a116.58,116.58,0,0,0-18,14.86c-8.71,9.05-13.17,20-16.18,31.71-5.24,20.39-2.39,40.49,1.9,60.7,4.72,22.27,13.79,42.84,23.9,62.9,6.83,13.53,15.41,26.21,23.7,39A319,319,0,0,0,450.71,605c8.94,11.08,18.51,21.66,27.8,32.45,6.74,7.82,13.12,16,20.29,23.38,8.62,8.91,17.95,17.12,26.88,25.73,8.64,8.33,16.91,17.05,25.77,25.13,11.45,10.44,23.07,20.73,35.09,30.5a231.91,231.91,0,0,0,25.92,18.34c11.42,6.93,23.44,12.88,35.17,19.32,7,3.84,13.83,7.9,20.84,11.68,7.49,4,15.11,7.82,22.63,11.81,6.65,3.52,13.18,7.27,19.88,10.68a52.69,52.69,0,0,0,8.65,3.11c4.29,1.3,7,5,6.1,8.73a7.85,7.85,0,0,1-9.71,5.73c-11.67-2.95-22.13-8.52-32.1-15.12-2.21-1.47-4.4-3-6.74-4.22q-13.86-7.37-27.81-14.56c-8.17-4.24-16.7-7.9-24.52-12.71-15.91-9.79-31.68-19.86-47.06-30.48-8-5.51-15.13-12.27-22.39-18.77-8.83-7.88-17.43-16-26-24.17C521.2,703.76,513,696,505.1,687.92q-15-15.39-29.51-31.29c-8-8.74-15.85-17.63-23.39-26.77-11-13.36-22.31-26.55-32.32-40.65-8.14-11.45-14.62-24.08-21.73-36.25-10.5-18-18.24-37.24-24.35-57A197.35,197.35,0,0,1,364.45,436.37Z" transform="translate(230.72 138.15)"/><path class="cls-4" d="M625.87,973.58c-10.67-1.74-22.13-3.48-33.55-5.49-22.72-4-45.32-8.87-68.15-12.05-27.56-3.83-54.65-9.12-80.67-19.11-16.41-6.3-33.18-11.9-49-19.46-16.2-7.75-31.74-17-47-26.51-12.29-7.62-24-16.24-35.54-25-8.21-6.21-15.82-13.21-23.52-20.07-18.84-16.81-37.79-33.52-56.25-50.75-6.56-6.12-11.93-13.56-17.7-20.51-4-4.85-8.19-9.64-11.58-14.9-7.32-11.37-14.77-22.72-21.09-34.64-9.76-18.38-19.72-36.79-27.51-56a207.94,207.94,0,0,1-14.19-53.38Q134,564,128,512.34c-2.86-24.52-.25-48.64,5.47-72.51,1-4.27,4.69-6.39,9-5.41,4.81,1.1,6.73,3.93,5.54,9-4.27,18.22-7.33,36.62-5.92,55.35,1.08,14.5,3.35,28.91,4.95,43.38s3.37,29.19,4.51,43.82a279.41,279.41,0,0,0,14.28,70.48,282.51,282.51,0,0,0,16,36.42c5.09,9.93,10.11,19.93,15.85,29.49,7.6,12.66,15.52,25.16,24,37.24,5.25,7.5,11.69,14.17,17.77,21.07a290.37,290.37,0,0,0,34.23,32.47c8.83,7.23,16.9,15.4,25.69,22.69,12.26,10.17,24.77,20,37.36,29.79,18.29,14.17,38.32,25.69,59.05,35.72,16.31,7.89,33.42,14.15,50.35,20.71a302.37,302.37,0,0,0,64.41,16.81c20.2,3,40.42,6.05,60.57,9.44,16.81,2.82,33.45,6.73,50.33,9,7.6,1,15.61-.32,23.38-1.09,26.19-2.57,52.33-5.56,78.53-8,11.84-1.1,23.77-1.29,35.67-1.76,5.65-.22,9.66,2.86,9.62,7.06,0,4.73-3.66,7.68-9.51,7.88a1047,1047,0,0,0-104.65,8.37C645.2,971.09,636.05,972.25,625.87,973.58Z" transform="translate(230.72 138.15)"/><path class="cls-4" d="M707.21,884c-21.6-1.31-43-3.62-63.75-10.1-17.35-5.41-34.59-11.31-52.18-15.78-15.75-4-30.18-11-44.92-17.31-7-3-13.3-7.62-19.65-11.92-8.42-5.7-16.74-11.58-24.77-17.81a129.17,129.17,0,0,1-15.2-13.7c-9.14-9.73-18.39-19.44-26.63-29.92-12.15-15.46-23.78-31.37-35-47.51a405.39,405.39,0,0,1-21.73-34.79c-7.86-14.15-14.5-29-22.2-43.23-7.11-13.13-14.56-26.11-22.55-38.72-6-9.52-13.19-18.32-19.79-27.49a107.9,107.9,0,0,1-14.59-29.58c-3.41-10.34-8.44-20.13-12.17-30.37-7.44-20.45-16-40.45-20.87-61.87a159.65,159.65,0,0,1-2.41-61.17c3.74-23.73,12.52-45.18,28.49-63.45a138.54,138.54,0,0,1,40-32c5.61-2.94,12-4.44,18.23-6.11,3.79-1,8,1.88,8.91,5.35s-1.42,7.54-5.26,8.94c-5,1.81-10.15,3.2-15,5.4-4,1.83-7.65,4.51-11.4,6.9a107.54,107.54,0,0,0-27.32,25.16,103.18,103.18,0,0,0-19.31,39.61c-5.69,24-5.91,47.45.4,71.36,4.19,15.9,9.79,31.16,15.86,46.36,6.32,15.82,11.95,31.92,18.48,47.65A119.35,119.35,0,0,0,351.93,568c5,7.54,11.27,14.25,16.17,21.84,6.73,10.42,12.79,21.27,18.94,32q6.85,12,13.22,24.31c6.29,12.13,12.2,24.47,18.63,36.53,3.16,5.9,7.09,11.4,10.74,17,6.59,10.18,13.07,20.44,19.93,30.43,4,5.87,8.72,11.27,13.09,16.91,2.13,2.74,4,5.69,6.3,8.28,8.32,9.4,16.4,19,25.26,27.91a295.58,295.58,0,0,0,27.1,24.18c8.22,6.41,17,12.49,26.31,17,14.9,7.23,29.72,14.76,46.12,18.72,12.34,3,24.26,7.69,36.36,11.66A287.37,287.37,0,0,0,725.18,869c4-.07,7,1.65,7.79,5,.57,2.39-.79,5.61-2.17,7.94-.75,1.25-3.32,1.9-5.1,2C719.54,884.13,713.38,884,707.21,884Z" transform="translate(230.72 138.15)"/><path class="cls-4" d="M830.28,857.57c-10.82-3-21.09-5.66-31.27-8.68-7.75-2.3-15.29-5.37-23.09-7.49-13.17-3.57-24.38-10.69-34.6-19.22C729,811.9,715.59,803.55,701.54,796c-15.47-8.36-30.84-16.92-46-25.82-11.78-6.91-23.17-14.48-34.75-21.75-9.08-5.7-18.58-10.83-27.16-17.2-12.24-9.06-23.92-18.88-35.62-28.64-7.58-6.33-15.1-12.81-22.06-19.8-8.64-8.69-16.73-17.93-25-27-9.84-10.89-19.81-21.67-29.25-32.9-10.7-12.71-21.29-25.55-31.15-38.9a276.58,276.58,0,0,1-31.84-55.46c-10.72-25-21.23-50.23-25.35-77.47-2-13-2.16-25.92,1.83-38.66,4-12.9,11.54-23.1,23.21-30.1a7.74,7.74,0,0,1,9.76,2.19c2.48,3.36,1.91,7.24-1.37,10.07s-6.5,5.26-9.25,8.33c-10.85,12.13-12,27-9.78,41.9a223,223,0,0,0,8.95,36.59c4.34,13.22,9.84,26.11,15.49,38.86,5.47,12.34,10.87,24.88,18,36.3,7.86,12.65,17.49,24.21,26.58,36.06,6.36,8.3,13,16.35,19.68,24.42,2.57,3.12,5.56,5.89,8.18,9,7.77,9.14,15.11,18.66,23.27,27.44,8.65,9.3,17.73,18.28,27.2,26.75,12.56,11.24,25.29,22.38,38.7,32.58,11.5,8.75,24,16.22,36.17,24,12.91,8.29,25.79,16.66,39,24.39,13.86,8.08,28.3,15.16,42.2,23.18,10.75,6.2,21.22,13,31.51,19.9,6.92,4.68,13.1,10.43,20,15.14a57,57,0,0,0,12.85,6c6.3,2.27,12.95,3.6,19.17,6.06a183,183,0,0,0,37.41,10.65,7.35,7.35,0,0,1,4.36,12.23C835,856,832.37,856.53,830.28,857.57Z" transform="translate(230.72 138.15)"/><path class="cls-4" d="M182.61,467.31c-.84-27.79,5.27-54.2,15.35-79.89,5-12.86,9.65-25.9,14.58-38.82,1.7-4.47,4.61-6.24,8.24-5.5s6.66,4.22,6.33,7.81a20.52,20.52,0,0,1-1.81,6,485.15,485.15,0,0,0-23,66.07c-5.24,19.54-5.05,39.65-4,59.7.69,13.27,1.34,26.59,3,39.77,1.81,14.71,4.36,29.35,7.18,43.91,5.07,26.08,11.24,51.9,20,77,5.66,16.19,11.5,32.33,16.65,48.68,5.5,17.44,13.49,33.76,22.21,49.66,7.28,13.28,14.94,26.46,25.18,37.9,6.77,7.56,12.52,16.09,19.64,23.27a332.17,332.17,0,0,0,26.58,23.55c11,9,22.18,17.9,33.92,25.92,11.26,7.7,23.35,14.16,35,21.25,3.58,2.17,6.87,4.81,10.47,6.93,8.73,5.17,17.43,10.43,26.42,15.11,3.75,2,5.12,4.43,4.86,8.29-.33,4.77-4.46,8.13-8.73,6.19-8.07-3.68-15.92-7.92-23.64-12.31-5.94-3.38-11.57-7.32-17.31-11.05-14.86-9.65-29.79-19.2-44.54-29-8.1-5.4-16-11.15-23.78-17a144,144,0,0,1-11-9.7c-8.17-7.58-16.75-14.8-24.26-23C289,800.3,283,791.52,276.6,783.11c-4.22-5.56-8.64-11-12.32-16.93-9.24-14.84-18-30-24.27-46.38-8.16-21.24-16.48-42.46-23.73-64a553.21,553.21,0,0,1-15.83-55.21c-6.62-29.6-13.4-59.25-15.62-89.62C183.77,496.42,183.33,481.86,182.61,467.31Z" transform="translate(230.72 138.15)"/><path class="cls-4" d="M634.82,947.21c-23.87-.12-45.26-4-66.56-9.28-24.16-5.95-47.11-15-69.69-25.21a278.28,278.28,0,0,1-28.46-14.31c-12.79-7.62-26.09-14.44-37.69-24-8-6.65-17.13-12-25.14-18.7a286.41,286.41,0,0,1-23.11-21.78C375,824.33,366,814.54,357.61,804.3c-10-12.18-19.32-24.89-28.79-37.49-5.7-7.57-11.73-15-16.49-23.14-7.36-12.61-15-25.06-19.75-39.13-3.23-9.64-8.26-18.66-12.08-28.12-6.8-16.83-13.25-33.81-20-50.69-1.7-4.28-3.93-8.35-5.75-12.58-1.9-4.39-.72-8,3-10,3.56-1.91,7.46-1.08,9.67,3a211.3,211.3,0,0,1,9.15,19.3c3.56,8.5,6.69,17.17,10.07,25.75,4,10.14,7.72,20.39,12.12,30.36,6.65,15.06,13.34,30.14,20.87,44.77,4.23,8.23,10.05,15.67,15.4,23.3,6.63,9.46,13.19,19,20.37,28,9.12,11.47,18.83,22.47,28.28,33.69,2.52,3,4.7,6.31,7.53,9,8.44,7.89,16.88,15.82,25.78,23.16,11.54,9.5,23,19.26,35.46,27.41,13,8.52,27.2,15.27,40.87,22.8,18.07,10,37.31,17.33,56.82,23.59,30.46,9.77,61.56,16.87,94,14.78,4.94-.32,8,2.3,8.17,6.37.2,5.16-2.11,7.89-7.29,8.3C641.07,947,637,947.1,634.82,947.21Z" transform="translate(230.72 138.15)"/><path class="cls-4" d="M268.08,347c-7.64,14.63-9.67,30.63-10.2,46.73-.89,26.72,2.95,53.1,7.83,79.28,3.38,18.13,6.46,36.45,11.76,54.05,5.1,16.93,12.73,33.1,19.51,49.5,5.23,12.64,11.09,25,16.23,37.7,4.3,10.62,7.32,21.78,12,32.19,6.67,14.73,14,29.19,21.73,43.42,8.76,16.19,18.24,32,27.39,48,2.71,4.73,7.16,6.65,10.67,4.57,3.8-2.25,4.76-6.73,2.28-11.35q-5-9.39-10.24-18.69c-8.22-14.6-16.71-29-24.67-43.78a268.63,268.63,0,0,1-13-27.23c-6.1-15.16-11.21-30.72-17.27-45.9-4.92-12.32-10.44-24.41-16-36.46-9.86-21.29-17.52-43.35-21.92-66.35-3.41-17.84-5.45-35.93-8.26-53.89-3.76-24.1-5.17-48.15.71-72.15a71.56,71.56,0,0,1,8.49-20Z" transform="translate(230.72 138.15)"/><path class="cls-4" d="M268.9,346.06A134,134,0,0,1,290.7,315,190.32,190.32,0,0,1,318,291.71c12.5-8.91,26.45-14.46,40.46-20.08a34.05,34.05,0,0,1,4.34-1.22c5,0,7.57,2.1,8.28,6s-1,7-5.12,8.42c-13.06,4.69-25.81,10-37.49,17.64-11.41,7.43-21.94,16.09-30.51,26.56-4.34,5.31-7.06,8.46-10.59,14.32Z" transform="translate(230.72 138.15)"/><path class="cls-4" d="M156.06,484.07c-.35-25.24,0-50.47,5.05-75.32,3.83-18.87,9.79-37,20.59-53.25,6.09-9.16,11.23-19.06,18-27.64a345.57,345.57,0,0,1,28.59-31.76A411.33,411.33,0,0,1,262,266.55c8.84-7,18.68-12.66,28.24-18.65,6.86-4.3,13.63-9.16,21.11-12,12.24-4.6,25-8,37.62-11.37,6.73-1.81,13.74-2.62,20.64-3.79,4.77-.82,8.6,1.7,9.44,6,.79,4.06-1.49,7.25-6.35,8.32-6,1.32-12.06,2.57-18.14,3.47-21.7,3.22-41.18,11.84-59.62,23.47a304.27,304.27,0,0,0-40.35,29.81c-7.39,6.57-15.07,12.88-21.93,20-6.65,6.89-12.5,14.57-18.52,22.05-4.39,5.43-9,10.81-12.6,16.74-5.83,9.51-11.83,19.07-16.18,29.29a168,168,0,0,0-12.69,52,577.19,577.19,0,0,0,1.8,112.83c1.8,16,5.89,31.62,8.24,47.51,1.47,10,5,19.15,8.51,28.42,1.81,4.78.4,8.68-3.79,10.49-3.82,1.65-7.59-.23-9.71-4.76-6.7-14.33-9.16-29.8-12.49-45.08C158.29,549.26,156.55,516.73,156.06,484.07Z" transform="translate(230.72 138.15)"/><path class="cls-4" d="M44.5,520c5.59-.11,9.5,4.32,8.42,8.94-7.6,32.52-5.55,65.18-.68,97.7,2.79,18.62,6.86,37.1,11.23,55.43,2.12,8.9,5.86,17.49,9.61,25.89a311.42,311.42,0,0,0,15.65,31.41c7.42,12.57,15.51,24.8,24.07,36.62,6,8.32,13.21,15.82,20.11,23.47s13.78,15.39,21.24,22.49c7.65,7.29,16,13.85,24,20.76,3,2.55,5.69,5.38,8.76,7.77,8,6.26,16.2,12.34,24.29,18.51,4.22,3.22,5.31,7.69,2.82,11.23s-7.5,4.15-11.89.78C193,874,184,866.72,174.86,859.6c-19-14.85-36.27-31.53-52.67-49.11A271.08,271.08,0,0,1,102,786c-9.07-12.36-18.12-24.81-26.06-37.9a245.72,245.72,0,0,1-25.74-58.52c-12-41.11-18-83.13-16.6-126,.4-12.37,3-24.67,4.74-37A7.49,7.49,0,0,1,44.5,520Z" transform="translate(230.72 138.15)"/><path class="cls-4" d="M459.68,362.54c9.85.53,18.77,3.39,27.46,7.67,13.24,6.52,23.73,16.29,32.76,27.58,8.51,10.66,16.05,22.09,24.25,33,9.3,12.4,18.84,24.63,28.32,36.89,4.26,5.51,8.56,11,13,16.38,10.24,12.51,21.27,24.46,30.63,37.6,8,11.21,14.09,23.74,21,35.71,3.07,5.33,5.94,10.77,9,16.08,3.78,6.5,7.68,12.93,11.58,19.36,2,3.31,1.21,8.53-1.73,10.68a7.41,7.41,0,0,1-10.64-2.35c-4.23-6.72-8-13.7-12-20.58-9-15.47-17.14-31.46-27.1-46.26-8.53-12.66-19.11-24-28.76-35.87-1.92-2.36-3.79-4.76-5.67-7.15-8.46-10.74-17-21.4-25.35-32.23q-9.31-12.07-18.19-24.5c-5.85-8.15-11.15-16.71-17.29-24.62-4-5.15-9.09-9.46-13.67-14.16-8.6-8.82-18.78-15.13-31-17-5.63-.86-11.68,0-17.37,1-5.2.92-9.5-.45-10.94-4.9-1.33-4.1,1.27-8.11,6.55-9.39C449.51,364.31,454.62,363.52,459.68,362.54Z" transform="translate(230.72 138.15)"/><path class="cls-4" d="M422,261.11c24.44.35,47.59,5.59,69.21,16.86A197.56,197.56,0,0,1,514,291.76a234.47,234.47,0,0,1,25.48,20.29c7.16,6.75,13.14,14.76,19.49,22.34,3.77,4.49,7.76,8.91,10.76,13.91,7.39,12.3,14.45,24.8,21.29,37.42,4.71,8.71,9,17.69,13.18,26.66,5.22,11.12,10.19,22.34,15.24,33.54a26.31,26.31,0,0,1,1.89,5.1c.94,4.24-.8,7.66-4.3,8.91a7.81,7.81,0,0,1-9.69-3.7c-1.11-2.06-1.7-4.39-2.69-6.53q-13.22-28.53-26.5-57.05a238.65,238.65,0,0,0-29.28-47.27c-5.92-7.51-13.11-14-19.31-21.31-9.74-11.47-21.87-20.29-34.53-27.57-13.64-7.83-27.94-15.28-44.26-17.2-13.63-1.61-27.19-3.77-41-2-4.58.58-9.12,1.43-13.7,2-5.67.71-8.64-1.08-9.21-5.35-.79-6,1.09-8.65,7.13-9.46C403.35,263.24,412.67,262.22,422,261.11Z" transform="translate(230.72 138.15)"/><path class="cls-4" d="M652.76,660.18c-1.79,2.21-3.18,4.88-5.36,6.36-2.93,2-6.21,1.08-8.9-1.23-10.56-9.07-21.65-17.62-31.49-27.42-7.85-7.82-14.36-17-21.15-25.9-12.16-15.84-24.09-31.87-36.1-47.83-6.62-8.81-13.4-17.5-19.77-26.48-8.48-11.94-16.64-24.1-24.92-36.18a169.63,169.63,0,0,0-26.63-29.93c-2.42-2.19-5.6-3.56-8.5-5.19-2.32-1.31-4.84-2.26-7.07-3.68-3.18-2-4.47-6.52-2.68-9.65s4.83-4.22,8.56-3.55c6.6,1.2,12.05,4.62,16.76,9,8.55,8,17.36,15.92,24.94,24.82,6.57,7.7,11.41,16.84,17.31,25.13,9,12.63,18.26,25.06,27.37,37.61,6.55,9,13,18.13,19.55,27.15,1.72,2.36,3.72,4.52,5.52,6.83,7.57,9.68,15,19.47,22.7,29,6.19,7.72,12.62,15.24,19.1,22.71a49.11,49.11,0,0,0,6.32,5.52c7.15,5.79,14.41,11.46,21.46,17.37C651,655.77,651.47,657.75,652.76,660.18Z" transform="translate(230.72 138.15)"/><path class="cls-4" d="M617.26,842.55c-3.5-1.6-7-3.14-10.48-4.83-8.51-4.16-17-8.29-25.47-12.62-7.95-4.09-15.9-8.22-23.63-12.7-9.5-5.52-19-11.15-28.06-17.27-6-4-11.37-9-17-13.6a75.35,75.35,0,0,1-6-5.17c-9-9.16-18.15-18.17-26.77-27.66-10-11-19.76-22.07-29-33.64-6.49-8.15-11.87-17.19-17.79-25.8-2.53-3.68-5.3-7.21-7.73-11-2.72-4.18-2.33-7.47.84-10,3.5-2.83,7.28-3,10.38.75,4.52,5.48,8.26,11.6,12.41,17.39,3.75,5.21,7.51,10.42,11.43,15.51q9.81,12.75,19.84,25.33c2.25,2.82,4.81,5.39,7.28,8,8.48,9.05,16.58,18.51,25.59,27,8,7.52,16.94,14.05,25.61,20.84,15.05,11.79,32.08,20.13,49.37,28,6,2.73,11.64,6.06,17.51,9,4.24,2.13,8.53,4.18,12.87,6.09,3.81,1.67,6.58,6,5.62,9.73C623.31,839.27,621.65,842,617.26,842.55Z" transform="translate(230.72 138.15)"/><path class="cls-4" d="M115.46,531c4.53-.05,6.88,2.82,7.07,8.5.39,11.33.6,22.68,1.28,34,1.47,24.37,5.9,48.23,11.86,71.94,4.59,18.22,11.8,35.3,20.41,51.68,6.71,12.77,15.84,24.29,24.06,36.24,2.52,3.67,2.16,8.58-1.4,11.23-3.91,2.9-8.18,1.84-11.07-2.32s-6.35-7.52-8.89-11.66c-8.08-13.17-17.15-25.79-22.6-40.48-3.73-10.09-9.15-19.67-11.86-30-5-19-9.76-38.28-12.37-57.74-2.76-20.61-3-41.57-4.13-62.39C107.51,534.35,110.67,531,115.46,531Z" transform="translate(230.72 138.15)"/><path class="cls-4" d="M789,718.82c-2,2.16-3.59,4.68-5.86,6.07-2.49,1.52-5.28,1-7.54-1.49-5-5.45-9.87-11-15.26-16-8.26-7.7-17-14.89-25.36-22.48-3.4-3.08-6.35-6.66-9.58-9.92-10.47-10.56-19.09-22.52-27-35.06-3.94-6.26-8.43-12.18-12.39-18.43-6.28-9.89-12.26-20-18.52-29.89-3.51-5.55-7.49-10.8-11-16.37s-6.91-11.46-10-17.39c-1.79-3.44.08-7.83,3.53-9.7s7.4-.78,9.74,3c4.16,6.77,8,13.75,12.31,20.42,8.26,12.77,16.77,25.37,25.14,38.07,9.12,13.87,17.79,28.07,27.47,41.54,5.14,7.16,11.76,13.31,18.13,19.5,10.81,10.48,22,20.55,32.89,31a129.42,129.42,0,0,1,10,11.28C787,714.36,787.65,716.23,789,718.82Z" transform="translate(230.72 138.15)"/><path class="cls-4" d="M610.49,660.21c-2.1,2.49-3.59,5.67-6,6.62-2,.8-5.89-.17-7.48-1.79-8-8.16-15.55-16.75-23.19-25.25-9.8-10.9-19.7-21.72-29.23-32.85-6.33-7.4-12-15.32-18.11-22.94-3-3.82-6.46-7.35-9.34-11.28-9.91-13.5-19.79-27-29.41-40.72-6.64-9.46-12.84-19.24-19.22-28.89-1.68-2.55-2.4-5.52-.11-7.73a13,13,0,0,1,7-3.53c1.71-.19,4.33,1.45,5.42,3,6.3,9.19,12.18,18.67,18.35,28,4.62,7,9.16,14,14.26,20.59,8.86,11.49,18.17,22.63,27.21,34,6.15,7.73,12.06,15.66,18.27,23.34,3.06,3.79,6.64,7.16,9.84,10.85,7.32,8.41,14.43,17,21.84,25.33,5.27,5.92,10.93,11.49,16.28,17.35C608.21,655.73,609,657.68,610.49,660.21Z" transform="translate(230.72 138.15)"/><path class="cls-4" d="M-127.71,750.64c20.94.39,41,5.6,60.9,11.31,8.84,2.53,17.75,4.94,26.39,8.08a285.73,285.73,0,0,1,64.84,32.86c3.33,2.29,6.52,4.78,9.66,7.33,2.59,2.11,2.86,6.07.86,9.18a7,7,0,0,1-8.76,3,46.69,46.69,0,0,1-4.57-3C9.75,812.09-1.72,804-14.1,797.69a301.89,301.89,0,0,0-61.5-22.92c-21.24-5.49-42.49-9.82-64.55-9.26-4.78.13-7.54-2.87-7.43-7.21a7.61,7.61,0,0,1,7.69-7.65C-135.83,750.61-131.77,750.64-127.71,750.64Z" transform="translate(230.72 138.15)"/><path class="cls-4" d="M-61.93,590.65c-1.75,6.2-3.44,13.73-6,20.94C-72.5,624.2-77.14,636.81-82.63,649c-2.89,6.41-7.22,12.34-11.7,17.84-8.26,10.13-16.36,20.59-25.9,29.43-12.14,11.26-25.6,21.1-38.61,31.41-3.38,2.68-7.74,1.67-10.21-1.82s-1.5-7.41,1.91-10.15c12.71-10.23,26-19.89,37.72-31.16,10.1-9.7,18.76-21,27.28-32.18,4.16-5.45,7.2-12,9.6-18.5,5.66-15.31,10.66-30.87,15.88-46.35,1.3-3.88,4.93-6.43,8.61-5.81C-64.9,582.27-62,585.89-61.93,590.65Z" transform="translate(230.72 138.15)"/><path class="cls-4" d="M430.25,304.16c-7.27,1.82-14.59,3.46-21.8,5.51-6.56,1.87-11.41-.86-11.35-6.86,0-3.63,1.84-6,5.27-7.24C419.15,289.4,436,289,453.48,293c13.33,3.06,25.33,8.74,36.86,15.58a244.53,244.53,0,0,1,23.4,16c7.51,5.72,14.57,12,21.72,18.22,2.45,2.1,4.34,5.09,2.72,8.14a14.26,14.26,0,0,1-6.17,5.46c-1.25.61-3.91-.3-5.23-1.39-10.56-8.71-20.29-18.62-31.56-26.25-19.43-13.16-40.27-23.63-64.75-23.49Z" transform="translate(230.72 138.15)"/><path class="cls-4" d="M312.2,431.44c.64-20.79,4-39.83,11.14-58.4,4.22-11,10.83-20.28,17.66-29.28,6.68-8.8,15.4-16.08,23.49-23.75,3-2.89,7.06-2.25,9.74.67s2.88,6.8,0,9.82c-4.22,4.43-8.9,8.45-13,13-11.13,12.27-20.84,25.34-26.35,41.38-5.77,16.81-7.45,34.06-8,51.59-.18,5.54-2.79,8.61-7.09,8.48-4.63-.14-7.53-3.47-7.58-8.73C312.18,434.25,312.2,432.31,312.2,431.44Z" transform="translate(230.72 138.15)"/><path class="cls-4" d="M196.48,651.32c2.58.14,4.83,2.08,5.83,5.24,4.22,13.46,8.11,27,12.57,40.4a100,100,0,0,0,7.38,16.35c6.45,11.72,13.23,23.27,20,34.83,3.38,5.83,1.11,12-5,13-3,.46-5.47-.27-7.08-3.19-4.45-8.06-9.14-16-13.46-24.13-5.57-10.45-11.38-20.83-16.14-31.67-3.22-7.35-4.81-15.42-7.12-23.18-1.8-6-3.73-12-5.31-18.09C186.72,655.57,190.2,651.32,196.48,651.32Z" transform="translate(230.72 138.15)"/><path class="cls-4" d="M-16,617.89c1.17-4.92,2.59-12.3,4.77-19.45a6.94,6.94,0,0,1,9-4.69c4,1.42,6.55,5.79,4.79,9.84C-2.31,614.8-.35,626.16,1.2,637.51a199.36,199.36,0,0,0,3.91,22.31,179.54,179.54,0,0,0,13.63,36,12.46,12.46,0,0,1,1.47,6.74c-.45,3.32-3.06,5.34-6.41,5.74s-6.06-1.47-7.38-4.47c-4.26-9.7-8.62-19.38-12.35-29.29C-12.46,657.15-13.72,638.78-16,617.89Z" transform="translate(230.72 138.15)"/><path class="cls-4" d="M703.49,726.85a32.79,32.79,0,0,1,4.42,1.34c7.68,3.68,15.38,7.31,23,11.18,14.68,7.49,29.25,15.19,43.94,22.66,7.84,4,15.83,7.68,23.78,11.46,5.38,2.56,7.18,6.28,5.12,10.57-1.77,3.68-7.26,5.43-11.94,2.76-7.5-4.29-15.69-7.34-23.44-11.21-17.63-8.81-35.16-17.8-52.73-26.7-4.72-2.39-9.64-4.45-14.15-7.17-4.12-2.48-5.31-7.23-2.89-10.89C699.74,729.08,702,728,703.49,726.85Z" transform="translate(230.72 138.15)"/><path class="cls-4" d="M-100.62,728c22.43,1.22,43.13,7.49,62.66,17.85,3.21,1.7,6.62,3,9.78,4.8,4.31,2.41,5.75,6.77,3.79,10.65-1.58,3.13-6.16,4.52-10.32,2.66-9.7-4.32-19.12-9.29-29-13.22-11.87-4.74-24.4-7-37.17-7.78-1.26-.08-2.54,0-3.77-.18a7.89,7.89,0,0,1-6.75-7.87c.07-3.36,3.36-6.53,7.24-6.89A34.38,34.38,0,0,1-100.62,728Z" transform="translate(230.72 138.15)"/><path class="cls-4" d="M459.6,392.14c17.34.11,29.49,5.92,40.2,15.11,4,3.41,4.66,8.56,2,11.47s-7.93,2.62-12-.05c-5.19-3.46-10.33-7.4-16.08-9.56-12.22-4.59-23.36-2.05-32.66,7.48-3.76,3.86-8.88,4.21-11.79,1-3.31-3.63-2.29-8.87,1.87-12.52C440.17,397.19,450.19,392,459.6,392.14Z" transform="translate(230.72 138.15)"/><path class="cls-4" d="M-76.64,705c10.42.18,17.08,4.23,22.67,10.27a6.91,6.91,0,0,1-.78,10,7.84,7.84,0,0,1-10.33,0c-6.63-6.35-8.73-6.67-16.8-2.6-3,1.53-7.09.29-9.19-2.8a6.84,6.84,0,0,1,1.57-9.69C-85.19,706.89-80.39,704.74-76.64,705Z" transform="translate(230.72 138.15)"/><path class="cls-4" d="M291.66,18.31c-15-1.06-33.61,3.52-52.51,7.93A372.41,372.41,0,0,0,174.89,47.8a229.19,229.19,0,0,0-23.37,12.29c-14.11,8.21-28.25,16.39-41.93,25.28a305.2,305.2,0,0,0-26.36,19.89c-17.7,14.49-35.32,29.09-52.66,44-9.81,8.45-18.94,17.67-28.44,26.48q-14.85,13.75-29.82,27.4C-37.46,212.1-47.2,221.07-57,230c-7.54,6.83-15.58,13.16-22.69,20.39a310.58,310.58,0,0,0-22.66,25.71c-8.94,11.39-17.18,23.33-25.62,35.1-2.19,3.05-3.87,6.47-6,9.54-2.56,3.64-7,4.71-9.86,2.65a8.39,8.39,0,0,1-2.24-11.57c6.31-9.35,12.3-18.93,19-28,13.53-18.35,27.6-36.25,44.94-51.34C-71,222.7-60.5,212.24-49.51,202.3c7.65-6.91,15.8-13.26,23.36-20.26,8.39-7.75,16.22-16.1,24.56-23.91,7.43-6.95,15.23-13.49,22.83-20.26,4.17-3.72,8.1-7.72,12.41-11.25C51.48,112,69,97.05,87.43,83.24a514.34,514.34,0,0,1,45.3-30,364.51,364.51,0,0,1,42.06-21.64,344,344,0,0,1,45-15.9C237,10.92,254.56,6.71,272.23,4.54c23.69-2.91,47.63-1.29,71.27,1.8a526.5,526.5,0,0,1,53.6,9.8c12.18,2.91,24,7.74,35.64,12.41,14.11,5.64,28,11.81,41.83,18.16,6.59,3,12.72,7.06,19.1,10.54Q515.18,69,536.73,80.6c5.53,3,11.13,5.86,16.66,8.86,4.46,2.43,5.78,6.05,3.81,10s-6.5,5.3-10.87,3.13c-6-3-11.93-6.16-17.82-9.38-17-9.34-33.8-19.13-51.05-28a568.79,568.79,0,0,0-55.74-25.06C381.28,24.51,339.26,18.84,291.66,18.31Z" transform="translate(230.72 138.15)"/><path class="cls-4" d="M47.56,102.49c-1.51,2.41-2.24,4.5-3.69,5.74q-14,12-28.3,23.64C5.45,140.16-5,148-14.9,156.6c-8.92,7.77-17.38,16.09-25.7,24.5-5.46,5.53-10.35,11.63-15.42,17.53-3.42,4-8.64,5-12.27,2.11-2.9-2.28-2.86-7.23.24-11.3,12.6-16.56,27.77-30.6,43.56-44,7.64-6.49,15.22-13.06,23-19.35,8.21-6.61,16.74-12.83,25-19.42,3.8-3,7-6.92,11-9.66,2-1.36,5.59-2,7.63-1.14C44.36,96.85,45.65,100,47.56,102.49Z" transform="translate(230.72 138.15)"/><path class="cls-4" d="M-193.28,854.05c7,1.68,14.19,3.5,21.42,5.11,10.2,2.27,18.7,7.8,27.28,13.41,11,7.15,21.88,14.25,34.76,18,8.8,2.57,17,7.23,25.58,10.54,14.32,5.5,28.6,11.25,43.23,15.84,17.36,5.45,34.7,10.8,50.68,19.66a80.27,80.27,0,0,1,11.74,8c3.22,2.63,3.18,6.62.54,9.72A8,8,0,0,1,11.7,956c-7-4.24-13.87-8.94-21.34-12.17-9.58-4.14-19.66-7.15-29.59-10.42-23-7.58-45.66-15.83-67.79-25.6-9.44-4.17-19.16-7.77-28.42-12.31a102.18,102.18,0,0,1-16.94-10.78c-9.61-7.37-20.65-10.83-32.23-13.25a86.38,86.38,0,0,1-11.69-3.3c-3.54-1.3-5.14-4.28-4.77-8C-200.74,857-196.89,854.07-193.28,854.05Z" transform="translate(230.72 138.15)"/><path class="cls-4" d="M-113.48,863c4,1.61,8.84,3.4,13.56,5.46,16,6.94,31.93,14,47.89,21a7.43,7.43,0,0,1,3.8,9.16c-1.42,4.42-4.86,6.6-9.09,4.92-8.17-3.26-16.16-7-24.2-10.55-8.77-3.91-17.5-7.93-26.28-11.83-3.19-1.41-6.58-2.38-9.68-3.95s-5.33-4.14-4.24-8.15C-120.7,865.35-118.14,863.54-113.48,863Z" transform="translate(230.72 138.15)"/></g><path class="cls-2" d="M365.89,654.05H405c23.66,0,37.75,7.89,37.75,34.37,0,19.16-7.89,28-19,31.56,13.15,3.38,21.79,13.14,21.79,35.31,0,29.67-15.78,37.94-39.45,37.94H365.89Zm38.88,62.17c17.47,0,28.55-5.45,28.55-26.86s-11.08-26.86-28.55-26.86H375.28v53.72Zm1.31,68.56c17.66,0,30.06-6,30.06-30.06,0-23.85-12.4-29.86-30.06-29.86h-30.8v59.92Z" transform="translate(230.72 138.15)"/><path class="cls-2" d="M455.48,723.73c0-39.25,4.51-71.18,49.21-71.18,44.33,0,49,31.93,49,71.18,0,39.07-4.51,71-49,71C460,794.73,455.48,762.8,455.48,723.73Zm88.85.19c0-34.94-3.76-62.36-39.64-62.36-36.43,0-39.82,27.42-39.82,62.36s3.39,62,39.82,62C540.94,785.9,544.33,758.86,544.33,723.92Z" transform="translate(230.72 138.15)"/><path class="cls-2" d="M600.49,729.18l-33.62,64.05h-10L596,720.54l-35.69-66.49h10.15l31,58,30.61-58h9.77l-35.69,66.68,39.07,72.5H635.05Z" transform="translate(230.72 138.15)"/><path class="cls-2" d="M55.28,738.31c0-34.07,9.44-56.22,48.14-56.22,38.89,0,47.94,22.53,47.94,56.22,0,35.05-9.05,56.61-47.94,56.61C65.1,794.92,55.28,772.78,55.28,738.31Zm66.81,1c0-19.06-1.92-30-18.67-30s-18.68,11-18.68,30c0,18.87,1.93,30.23,18.68,30.23S122.09,758.15,122.09,739.28Z" transform="translate(230.72 138.15)"/><path class="cls-2" d="M160.8,685.75l23.3-1.92,2.12,8.66c5.2-6.54,14.44-10.4,33.11-10.4,26.77,0,32,16.95,32,39.67v71.43H222V729.07c0-12.9-1.54-19.25-14.06-19.25-15.59,0-18.09,7.51-18.09,23.3v60.07H160.8Z" transform="translate(230.72 138.15)"/><path class="cls-2" d="M260,738.31c0-34.84,10.2-56.22,47.17-56.22,43.13,0,41.78,29.08,41.2,69.51H288.08c1.15,12.9,5.39,18.1,19.83,18.1s21.76-3.08,28.69-6.35l11,22.14c-10.39,5.58-22.91,9-41.2,9C267.86,794.54,260,773.74,260,738.31Zm27.92-9.24h34.85c-.39-14.44-1.35-21.56-16.37-21.56C292.12,707.51,288.66,714.44,287.89,729.07Z" transform="translate(230.72 138.15)"/></svg>